<svg xmlns="http://www.w3.org/2000/svg" xmlns:xlink="http://www.w3.org/1999/xlink" contentStyleType="text/css" height="2217px" preserveAspectRatio="none" style="width:1069px;height:2217px;background:#FFFFFF;" version="1.1" viewBox="0 0 1069 2217" width="1069px" zoomAndPan="magnify"><defs/><g><rect fill="#F1F1F1" height="36.2969" rx="12.5" ry="12.5" style="stroke:#181818;stroke-width:1.5;" width="93.6641" x="10" y="1089.6406"/><text fill="#000000" font-family="sans-serif" font-size="14" lengthAdjust="spacing" textLength="73.6641" x="20" y="1112.6357">schedule()</text><rect fill="#F1F1F1" height="36.2969" rx="12.5" ry="12.5" style="stroke:#181818;stroke-width:1.5;" width="170.6572" x="153.6641" y="20"/><text fill="#000000" font-family="sans-serif" font-size="14" lengthAdjust="spacing" textLength="150.6572" x="163.6641" y="42.9951">preempt_count_add()</text><path d="M103.6641,1107.7891 L113.6641,1107.7891 C128.6641,1107.7891 128.6641,38.1484 143.6641,38.1484 L153.6641,38.1484 " fill="none" style="stroke:#181818;stroke-width:1.0;"/><rect fill="#F1F1F1" height="36.2969" rx="12.5" ry="12.5" style="stroke:#181818;stroke-width:1.5;" width="203.4971" x="153.6641" y="76.2969"/><text fill="#000000" font-family="sans-serif" font-size="14" lengthAdjust="spacing" textLength="183.4971" x="163.6641" y="99.292">rcu_note_context_switch()</text><rect fill="#F1F1F1" height="36.2969" rx="12.5" ry="12.5" style="stroke:#181818;stroke-width:1.5;" width="76.4307" x="407.1611" y="76.2969"/><text fill="#000000" font-family="sans-serif" font-size="14" lengthAdjust="spacing" textLength="56.4307" x="417.1611" y="99.292">rcu_qs()</text><path d="M357.1611,94.4453 L367.1611,94.4453 C382.1611,94.4453 382.1611,94.4453 397.1611,94.4453 L407.1611,94.4453 " fill="none" style="stroke:#181818;stroke-width:1.0;"/><path d="M103.6641,1107.7891 L113.6641,1107.7891 C128.6641,1107.7891 128.6641,94.4453 143.6641,94.4453 L153.6641,94.4453 " fill="none" style="stroke:#181818;stroke-width:1.0;"/><rect fill="#F1F1F1" height="36.2969" rx="12.5" ry="12.5" style="stroke:#181818;stroke-width:1.5;" width="170.6572" x="153.6641" y="132.5938"/><text fill="#000000" font-family="sans-serif" font-size="14" lengthAdjust="spacing" textLength="150.6572" x="163.6641" y="155.5889">preempt_count_add()</text><path d="M103.6641,1107.7891 L113.6641,1107.7891 C128.6641,1107.7891 128.6641,150.7422 143.6641,150.7422 L153.6641,150.7422 " fill="none" style="stroke:#181818;stroke-width:1.0;"/><rect fill="#F1F1F1" height="36.2969" rx="12.5" ry="12.5" style="stroke:#181818;stroke-width:1.5;" width="134.9121" x="153.6641" y="188.8906"/><text fill="#000000" font-family="sans-serif" font-size="14" lengthAdjust="spacing" textLength="114.9121" x="163.6641" y="211.8857">_raw_spin_lock()</text><rect fill="#F1F1F1" height="36.2969" rx="12.5" ry="12.5" style="stroke:#181818;stroke-width:1.5;" width="170.6572" x="338.5762" y="188.8906"/><text fill="#000000" font-family="sans-serif" font-size="14" lengthAdjust="spacing" textLength="150.6572" x="348.5762" y="211.8857">preempt_count_add()</text><path d="M288.5762,207.0391 L298.5762,207.0391 C313.5762,207.0391 313.5762,207.0391 328.5762,207.0391 L338.5762,207.0391 " fill="none" style="stroke:#181818;stroke-width:1.0;"/><path d="M103.6641,1107.7891 L113.6641,1107.7891 C128.6641,1107.7891 128.6641,207.0391 143.6641,207.0391 L153.6641,207.0391 " fill="none" style="stroke:#181818;stroke-width:1.0;"/><rect fill="#F1F1F1" height="36.2969" rx="12.5" ry="12.5" style="stroke:#181818;stroke-width:1.5;" width="169.3584" x="153.6641" y="245.1875"/><text fill="#000000" font-family="sans-serif" font-size="14" lengthAdjust="spacing" textLength="149.3584" x="163.6641" y="268.1826">preempt_count_sub()</text><path d="M103.6641,1107.7891 L113.6641,1107.7891 C128.6641,1107.7891 128.6641,263.3359 143.6641,263.3359 L153.6641,263.3359 " fill="none" style="stroke:#181818;stroke-width:1.0;"/><rect fill="#F1F1F1" height="36.2969" rx="12.5" ry="12.5" style="stroke:#181818;stroke-width:1.5;" width="144.8516" x="153.6641" y="301.4844"/><text fill="#000000" font-family="sans-serif" font-size="14" lengthAdjust="spacing" textLength="124.8516" x="163.6641" y="324.4795">update_rq_clock()</text><path d="M103.6641,1107.7891 L113.6641,1107.7891 C128.6641,1107.7891 128.6641,319.6328 143.6641,319.6328 L153.6641,319.6328 " fill="none" style="stroke:#181818;stroke-width:1.0;"/><rect fill="#F1F1F1" height="36.2969" rx="12.5" ry="12.5" style="stroke:#181818;stroke-width:1.5;" width="164.3887" x="153.6641" y="1061.4922"/><text fill="#000000" font-family="sans-serif" font-size="14" lengthAdjust="spacing" textLength="144.3887" x="163.6641" y="1084.4873">pick_next_task_fair()</text><rect fill="#F1F1F1" height="36.2969" rx="12.5" ry="12.5" style="stroke:#181818;stroke-width:1.5;" width="115.334" x="368.0527" y="301.4844"/><text fill="#000000" font-family="sans-serif" font-size="14" lengthAdjust="spacing" textLength="95.334" x="378.0527" y="324.4795">update_curr()</text><rect fill="#F1F1F1" height="36.2969" rx="12.5" ry="12.5" style="stroke:#181818;stroke-width:1.5;" width="138.2412" x="533.3867" y="245.1875"/><text fill="#000000" font-family="sans-serif" font-size="14" lengthAdjust="spacing" textLength="118.2412" x="543.3867" y="268.1826">update_curr_se()</text><path d="M483.3867,319.6328 L493.3867,319.6328 C508.3867,319.6328 508.3867,263.3359 523.3867,263.3359 L533.3867,263.3359 " fill="none" style="stroke:#181818;stroke-width:1.0;"/><rect fill="#F1F1F1" height="36.2969" rx="12.5" ry="12.5" style="stroke:#181818;stroke-width:1.5;" width="121.7393" x="533.3867" y="301.4844"/><text fill="#000000" font-family="sans-serif" font-size="14" lengthAdjust="spacing" textLength="101.7393" x="543.3867" y="324.4795">resched_curr()</text><path d="M483.3867,319.6328 L493.3867,319.6328 C508.3867,319.6328 508.3867,319.6328 523.3867,319.6328 L533.3867,319.6328 " fill="none" style="stroke:#181818;stroke-width:1.0;"/><rect fill="#F1F1F1" height="36.2969" rx="12.5" ry="12.5" style="stroke:#181818;stroke-width:1.5;" width="184.0693" x="533.3867" y="357.7813"/><text fill="#000000" font-family="sans-serif" font-size="14" lengthAdjust="spacing" textLength="164.0693" x="543.3867" y="380.7764">update_min_vruntime()</text><path d="M483.3867,319.6328 L493.3867,319.6328 C508.3867,319.6328 508.3867,375.9297 523.3867,375.9297 L533.3867,375.9297 " fill="none" style="stroke:#181818;stroke-width:1.0;"/><path d="M318.0527,1079.6406 L328.0527,1079.6406 C343.0527,1079.6406 343.0527,319.6328 358.0527,319.6328 L368.0527,319.6328 " fill="none" style="stroke:#181818;stroke-width:1.0;"/><rect fill="#F1F1F1" height="36.2969" rx="12.5" ry="12.5" style="stroke:#181818;stroke-width:1.5;" width="145.4053" x="368.0527" y="442.2266"/><text fill="#000000" font-family="sans-serif" font-size="14" lengthAdjust="spacing" textLength="125.4053" x="378.0527" y="465.2217">pick_next_entity()</text><rect fill="#F1F1F1" height="36.2969" rx="12.5" ry="12.5" style="stroke:#181818;stroke-width:1.5;" width="105.832" x="563.458" y="442.2266"/><text fill="#000000" font-family="sans-serif" font-size="14" lengthAdjust="spacing" textLength="85.832" x="573.458" y="465.2217">pick_eevdf()</text><rect fill="#F1F1F1" height="36.2969" rx="12.5" ry="12.5" style="stroke:#181818;stroke-width:1.5;" width="151.8994" x="719.29" y="414.0781"/><text fill="#000000" font-family="sans-serif" font-size="14" lengthAdjust="spacing" textLength="131.8994" x="729.29" y="437.0732">vruntime_eligible()</text><path d="M669.29,460.375 L679.29,460.375 C694.29,460.375 694.29,432.2266 709.29,432.2266 L719.29,432.2266 " fill="none" style="stroke:#181818;stroke-width:1.0;"/><rect fill="#F1F1F1" height="36.2969" rx="12.5" ry="12.5" style="stroke:#181818;stroke-width:1.5;" width="151.8994" x="719.29" y="470.375"/><text fill="#000000" font-family="sans-serif" font-size="14" lengthAdjust="spacing" textLength="131.8994" x="729.29" y="493.3701">vruntime_eligible()</text><path d="M669.29,460.375 L679.29,460.375 C694.29,460.375 694.29,488.5234 709.29,488.5234 L719.29,488.5234 " fill="none" style="stroke:#181818;stroke-width:1.0;"/><path d="M513.458,460.375 L523.458,460.375 C538.458,460.375 538.458,460.375 553.458,460.375 L563.458,460.375 " fill="none" style="stroke:#181818;stroke-width:1.0;"/><path d="M318.0527,1079.6406 L328.0527,1079.6406 C343.0527,1079.6406 343.0527,460.375 358.0527,460.375 L368.0527,460.375 " fill="none" style="stroke:#181818;stroke-width:1.0;"/><rect fill="#F1F1F1" height="36.2969" rx="12.5" ry="12.5" style="stroke:#181818;stroke-width:1.5;" width="140.3535" x="368.0527" y="808.1563"/><text fill="#000000" font-family="sans-serif" font-size="14" lengthAdjust="spacing" textLength="120.3535" x="378.0527" y="831.1514">put_prev_entity()</text><rect fill="#F1F1F1" height="36.2969" rx="12.5" ry="12.5" style="stroke:#181818;stroke-width:1.5;" width="115.334" x="558.4063" y="582.9688"/><text fill="#000000" font-family="sans-serif" font-size="14" lengthAdjust="spacing" textLength="95.334" x="568.4063" y="605.9639">update_curr()</text><rect fill="#F1F1F1" height="36.2969" rx="12.5" ry="12.5" style="stroke:#181818;stroke-width:1.5;" width="138.2412" x="723.7402" y="526.6719"/><text fill="#000000" font-family="sans-serif" font-size="14" lengthAdjust="spacing" textLength="118.2412" x="733.7402" y="549.667">update_curr_se()</text><path d="M673.7402,601.1172 L683.7402,601.1172 C698.7402,601.1172 698.7402,544.8203 713.7402,544.8203 L723.7402,544.8203 " fill="none" style="stroke:#181818;stroke-width:1.0;"/><rect fill="#F1F1F1" height="36.2969" rx="12.5" ry="12.5" style="stroke:#181818;stroke-width:1.5;" width="184.0693" x="723.7402" y="582.9688"/><text fill="#000000" font-family="sans-serif" font-size="14" lengthAdjust="spacing" textLength="164.0693" x="733.7402" y="605.9639">update_min_vruntime()</text><path d="M673.7402,601.1172 L683.7402,601.1172 C698.7402,601.1172 698.7402,601.1172 713.7402,601.1172 L723.7402,601.1172 " fill="none" style="stroke:#181818;stroke-width:1.0;"/><rect fill="#F1F1F1" height="36.2969" rx="12.5" ry="12.5" style="stroke:#181818;stroke-width:1.5;" width="141.249" x="723.7402" y="639.2656"/><text fill="#000000" font-family="sans-serif" font-size="14" lengthAdjust="spacing" textLength="121.249" x="733.7402" y="662.2607">cpuacct_charge()</text><path d="M673.7402,601.1172 L683.7402,601.1172 C698.7402,601.1172 698.7402,657.4141 713.7402,657.4141 L723.7402,657.4141 " fill="none" style="stroke:#181818;stroke-width:1.0;"/><path d="M508.4063,826.3047 L518.4063,826.3047 C533.4063,826.3047 533.4063,601.1172 548.4063,601.1172 L558.4063,601.1172 " fill="none" style="stroke:#181818;stroke-width:1.0;"/><rect fill="#F1F1F1" height="36.2969" rx="12.5" ry="12.5" style="stroke:#181818;stroke-width:1.5;" width="153.9092" x="558.4063" y="695.5625"/><text fill="#000000" font-family="sans-serif" font-size="14" lengthAdjust="spacing" textLength="133.9092" x="568.4063" y="718.5576">__enqueue_entity()</text><path d="M508.4063,826.3047 L518.4063,826.3047 C533.4063,826.3047 533.4063,713.7109 548.4063,713.7109 L558.4063,713.7109 " fill="none" style="stroke:#181818;stroke-width:1.0;"/><rect fill="#F1F1F1" height="36.2969" rx="12.5" ry="12.5" style="stroke:#181818;stroke-width:1.5;" width="186.8311" x="558.4063" y="780.0078"/><text fill="#000000" font-family="sans-serif" font-size="14" lengthAdjust="spacing" textLength="166.8311" x="568.4063" y="803.0029">__update_load_avg_se()</text><rect fill="#F1F1F1" height="36.2969" rx="12.5" ry="12.5" style="stroke:#181818;stroke-width:1.5;" width="109.9063" x="795.2373" y="695.5625"/><text fill="#000000" font-family="sans-serif" font-size="14" lengthAdjust="spacing" textLength="89.9063" x="805.2373" y="718.5576">decay_load()</text><path d="M745.2373,798.1563 L755.2373,798.1563 C770.2373,798.1563 770.2373,713.7109 785.2373,713.7109 L795.2373,713.7109 " fill="none" style="stroke:#181818;stroke-width:1.0;"/><rect fill="#F1F1F1" height="36.2969" rx="12.5" ry="12.5" style="stroke:#181818;stroke-width:1.5;" width="109.9063" x="795.2373" y="751.8594"/><text fill="#000000" font-family="sans-serif" font-size="14" lengthAdjust="spacing" textLength="89.9063" x="805.2373" y="774.8545">decay_load()</text><path d="M745.2373,798.1563 L755.2373,798.1563 C770.2373,798.1563 770.2373,770.0078 785.2373,770.0078 L795.2373,770.0078 " fill="none" style="stroke:#181818;stroke-width:1.0;"/><rect fill="#F1F1F1" height="36.2969" rx="12.5" ry="12.5" style="stroke:#181818;stroke-width:1.5;" width="109.9063" x="795.2373" y="808.1563"/><text fill="#000000" font-family="sans-serif" font-size="14" lengthAdjust="spacing" textLength="89.9063" x="805.2373" y="831.1514">decay_load()</text><path d="M745.2373,798.1563 L755.2373,798.1563 C770.2373,798.1563 770.2373,826.3047 785.2373,826.3047 L795.2373,826.3047 " fill="none" style="stroke:#181818;stroke-width:1.0;"/><rect fill="#F1F1F1" height="36.2969" rx="12.5" ry="12.5" style="stroke:#181818;stroke-width:1.5;" width="236.4326" x="795.2373" y="864.4531"/><text fill="#000000" font-family="sans-serif" font-size="14" lengthAdjust="spacing" textLength="216.4326" x="805.2373" y="887.4482">__accumulate_pelt_segments()</text><path d="M745.2373,798.1563 L755.2373,798.1563 C770.2373,798.1563 770.2373,882.6016 785.2373,882.6016 L795.2373,882.6016 " fill="none" style="stroke:#181818;stroke-width:1.0;"/><path d="M508.4063,826.3047 L518.4063,826.3047 C533.4063,826.3047 533.4063,798.1563 548.4063,798.1563 L558.4063,798.1563 " fill="none" style="stroke:#181818;stroke-width:1.0;"/><rect fill="#F1F1F1" height="36.2969" rx="12.5" ry="12.5" style="stroke:#181818;stroke-width:1.5;" width="212.4863" x="558.4063" y="1005.1953"/><text fill="#000000" font-family="sans-serif" font-size="14" lengthAdjust="spacing" textLength="192.4863" x="568.4063" y="1028.1904">__update_load_avg_cfs_rq()</text><rect fill="#F1F1F1" height="36.2969" rx="12.5" ry="12.5" style="stroke:#181818;stroke-width:1.5;" width="109.9063" x="820.8926" y="920.75"/><text fill="#000000" font-family="sans-serif" font-size="14" lengthAdjust="spacing" textLength="89.9063" x="830.8926" y="943.7451">decay_load()</text><path d="M770.8926,1023.3438 L780.8926,1023.3438 C795.8926,1023.3438 795.8926,938.8984 810.8926,938.8984 L820.8926,938.8984 " fill="none" style="stroke:#181818;stroke-width:1.0;"/><rect fill="#F1F1F1" height="36.2969" rx="12.5" ry="12.5" style="stroke:#181818;stroke-width:1.5;" width="109.9063" x="820.8926" y="977.0469"/><text fill="#000000" font-family="sans-serif" font-size="14" lengthAdjust="spacing" textLength="89.9063" x="830.8926" y="1000.042">decay_load()</text><path d="M770.8926,1023.3438 L780.8926,1023.3438 C795.8926,1023.3438 795.8926,995.1953 810.8926,995.1953 L820.8926,995.1953 " fill="none" style="stroke:#181818;stroke-width:1.0;"/><rect fill="#F1F1F1" height="36.2969" rx="12.5" ry="12.5" style="stroke:#181818;stroke-width:1.5;" width="109.9063" x="820.8926" y="1033.3438"/><text fill="#000000" font-family="sans-serif" font-size="14" lengthAdjust="spacing" textLength="89.9063" x="830.8926" y="1056.3389">decay_load()</text><path d="M770.8926,1023.3438 L780.8926,1023.3438 C795.8926,1023.3438 795.8926,1051.4922 810.8926,1051.4922 L820.8926,1051.4922 " fill="none" style="stroke:#181818;stroke-width:1.0;"/><rect fill="#F1F1F1" height="36.2969" rx="12.5" ry="12.5" style="stroke:#181818;stroke-width:1.5;" width="236.4326" x="820.8926" y="1089.6406"/><text fill="#000000" font-family="sans-serif" font-size="14" lengthAdjust="spacing" textLength="216.4326" x="830.8926" y="1112.6357">__accumulate_pelt_segments()</text><path d="M770.8926,1023.3438 L780.8926,1023.3438 C795.8926,1023.3438 795.8926,1107.7891 810.8926,1107.7891 L820.8926,1107.7891 " fill="none" style="stroke:#181818;stroke-width:1.0;"/><path d="M508.4063,826.3047 L518.4063,826.3047 C533.4063,826.3047 533.4063,1023.3438 548.4063,1023.3438 L558.4063,1023.3438 " fill="none" style="stroke:#181818;stroke-width:1.0;"/><path d="M318.0527,1079.6406 L328.0527,1079.6406 C343.0527,1079.6406 343.0527,826.3047 358.0527,826.3047 L368.0527,826.3047 " fill="none" style="stroke:#181818;stroke-width:1.0;"/><rect fill="#F1F1F1" height="36.2969" rx="12.5" ry="12.5" style="stroke:#181818;stroke-width:1.5;" width="140.3535" x="368.0527" y="1371.125"/><text fill="#000000" font-family="sans-serif" font-size="14" lengthAdjust="spacing" textLength="120.3535" x="378.0527" y="1394.1201">put_prev_entity()</text><rect fill="#F1F1F1" height="36.2969" rx="12.5" ry="12.5" style="stroke:#181818;stroke-width:1.5;" width="115.334" x="558.4063" y="1145.9375"/><text fill="#000000" font-family="sans-serif" font-size="14" lengthAdjust="spacing" textLength="95.334" x="568.4063" y="1168.9326">update_curr()</text><rect fill="#F1F1F1" height="36.2969" rx="12.5" ry="12.5" style="stroke:#181818;stroke-width:1.5;" width="138.2412" x="723.7402" y="1145.9375"/><text fill="#000000" font-family="sans-serif" font-size="14" lengthAdjust="spacing" textLength="118.2412" x="733.7402" y="1168.9326">update_curr_se()</text><path d="M673.7402,1164.0859 L683.7402,1164.0859 C698.7402,1164.0859 698.7402,1164.0859 713.7402,1164.0859 L723.7402,1164.0859 " fill="none" style="stroke:#181818;stroke-width:1.0;"/><path d="M508.4063,1389.2734 L518.4063,1389.2734 C533.4063,1389.2734 533.4063,1164.0859 548.4063,1164.0859 L558.4063,1164.0859 " fill="none" style="stroke:#181818;stroke-width:1.0;"/><rect fill="#F1F1F1" height="36.2969" rx="12.5" ry="12.5" style="stroke:#181818;stroke-width:1.5;" width="153.9092" x="558.4063" y="1202.2344"/><text fill="#000000" font-family="sans-serif" font-size="14" lengthAdjust="spacing" textLength="133.9092" x="568.4063" y="1225.2295">__enqueue_entity()</text><path d="M508.4063,1389.2734 L518.4063,1389.2734 C533.4063,1389.2734 533.4063,1220.3828 548.4063,1220.3828 L558.4063,1220.3828 " fill="none" style="stroke:#181818;stroke-width:1.0;"/><rect fill="#F1F1F1" height="36.2969" rx="12.5" ry="12.5" style="stroke:#181818;stroke-width:1.5;" width="186.8311" x="558.4063" y="1286.6797"/><text fill="#000000" font-family="sans-serif" font-size="14" lengthAdjust="spacing" textLength="166.8311" x="568.4063" y="1309.6748">__update_load_avg_se()</text><rect fill="#F1F1F1" height="36.2969" rx="12.5" ry="12.5" style="stroke:#181818;stroke-width:1.5;" width="109.9063" x="795.2373" y="1202.2344"/><text fill="#000000" font-family="sans-serif" font-size="14" lengthAdjust="spacing" textLength="89.9063" x="805.2373" y="1225.2295">decay_load()</text><path d="M745.2373,1304.8281 L755.2373,1304.8281 C770.2373,1304.8281 770.2373,1220.3828 785.2373,1220.3828 L795.2373,1220.3828 " fill="none" style="stroke:#181818;stroke-width:1.0;"/><rect fill="#F1F1F1" height="36.2969" rx="12.5" ry="12.5" style="stroke:#181818;stroke-width:1.5;" width="109.9063" x="795.2373" y="1258.5313"/><text fill="#000000" font-family="sans-serif" font-size="14" lengthAdjust="spacing" textLength="89.9063" x="805.2373" y="1281.5264">decay_load()</text><path d="M745.2373,1304.8281 L755.2373,1304.8281 C770.2373,1304.8281 770.2373,1276.6797 785.2373,1276.6797 L795.2373,1276.6797 " fill="none" style="stroke:#181818;stroke-width:1.0;"/><rect fill="#F1F1F1" height="36.2969" rx="12.5" ry="12.5" style="stroke:#181818;stroke-width:1.5;" width="109.9063" x="795.2373" y="1314.8281"/><text fill="#000000" font-family="sans-serif" font-size="14" lengthAdjust="spacing" textLength="89.9063" x="805.2373" y="1337.8232">decay_load()</text><path d="M745.2373,1304.8281 L755.2373,1304.8281 C770.2373,1304.8281 770.2373,1332.9766 785.2373,1332.9766 L795.2373,1332.9766 " fill="none" style="stroke:#181818;stroke-width:1.0;"/><rect fill="#F1F1F1" height="36.2969" rx="12.5" ry="12.5" style="stroke:#181818;stroke-width:1.5;" width="236.4326" x="795.2373" y="1371.125"/><text fill="#000000" font-family="sans-serif" font-size="14" lengthAdjust="spacing" textLength="216.4326" x="805.2373" y="1394.1201">__accumulate_pelt_segments()</text><path d="M745.2373,1304.8281 L755.2373,1304.8281 C770.2373,1304.8281 770.2373,1389.2734 785.2373,1389.2734 L795.2373,1389.2734 " fill="none" style="stroke:#181818;stroke-width:1.0;"/><path d="M508.4063,1389.2734 L518.4063,1389.2734 C533.4063,1389.2734 533.4063,1304.8281 548.4063,1304.8281 L558.4063,1304.8281 " fill="none" style="stroke:#181818;stroke-width:1.0;"/><rect fill="#F1F1F1" height="36.2969" rx="12.5" ry="12.5" style="stroke:#181818;stroke-width:1.5;" width="212.4863" x="558.4063" y="1511.8672"/><text fill="#000000" font-family="sans-serif" font-size="14" lengthAdjust="spacing" textLength="192.4863" x="568.4063" y="1534.8623">__update_load_avg_cfs_rq()</text><rect fill="#F1F1F1" height="36.2969" rx="12.5" ry="12.5" style="stroke:#181818;stroke-width:1.5;" width="109.9063" x="820.8926" y="1427.4219"/><text fill="#000000" font-family="sans-serif" font-size="14" lengthAdjust="spacing" textLength="89.9063" x="830.8926" y="1450.417">decay_load()</text><path d="M770.8926,1530.0156 L780.8926,1530.0156 C795.8926,1530.0156 795.8926,1445.5703 810.8926,1445.5703 L820.8926,1445.5703 " fill="none" style="stroke:#181818;stroke-width:1.0;"/><rect fill="#F1F1F1" height="36.2969" rx="12.5" ry="12.5" style="stroke:#181818;stroke-width:1.5;" width="109.9063" x="820.8926" y="1483.7188"/><text fill="#000000" font-family="sans-serif" font-size="14" lengthAdjust="spacing" textLength="89.9063" x="830.8926" y="1506.7139">decay_load()</text><path d="M770.8926,1530.0156 L780.8926,1530.0156 C795.8926,1530.0156 795.8926,1501.8672 810.8926,1501.8672 L820.8926,1501.8672 " fill="none" style="stroke:#181818;stroke-width:1.0;"/><rect fill="#F1F1F1" height="36.2969" rx="12.5" ry="12.5" style="stroke:#181818;stroke-width:1.5;" width="109.9063" x="820.8926" y="1540.0156"/><text fill="#000000" font-family="sans-serif" font-size="14" lengthAdjust="spacing" textLength="89.9063" x="830.8926" y="1563.0107">decay_load()</text><path d="M770.8926,1530.0156 L780.8926,1530.0156 C795.8926,1530.0156 795.8926,1558.1641 810.8926,1558.1641 L820.8926,1558.1641 " fill="none" style="stroke:#181818;stroke-width:1.0;"/><rect fill="#F1F1F1" height="36.2969" rx="12.5" ry="12.5" style="stroke:#181818;stroke-width:1.5;" width="236.4326" x="820.8926" y="1596.3125"/><text fill="#000000" font-family="sans-serif" font-size="14" lengthAdjust="spacing" textLength="216.4326" x="830.8926" y="1619.3076">__accumulate_pelt_segments()</text><path d="M770.8926,1530.0156 L780.8926,1530.0156 C795.8926,1530.0156 795.8926,1614.4609 810.8926,1614.4609 L820.8926,1614.4609 " fill="none" style="stroke:#181818;stroke-width:1.0;"/><path d="M508.4063,1389.2734 L518.4063,1389.2734 C533.4063,1389.2734 533.4063,1530.0156 548.4063,1530.0156 L558.4063,1530.0156 " fill="none" style="stroke:#181818;stroke-width:1.0;"/><path d="M318.0527,1079.6406 L328.0527,1079.6406 C343.0527,1079.6406 343.0527,1389.2734 358.0527,1389.2734 L368.0527,1389.2734 " fill="none" style="stroke:#181818;stroke-width:1.0;"/><rect fill="#F1F1F1" height="36.2969" rx="12.5" ry="12.5" style="stroke:#181818;stroke-width:1.5;" width="138.2207" x="368.0527" y="1765.2031"/><text fill="#000000" font-family="sans-serif" font-size="14" lengthAdjust="spacing" textLength="118.2207" x="378.0527" y="1788.1982">set_next_entity()</text><rect fill="#F1F1F1" height="36.2969" rx="12.5" ry="12.5" style="stroke:#181818;stroke-width:1.5;" width="153.9229" x="556.2734" y="1680.7578"/><text fill="#000000" font-family="sans-serif" font-size="14" lengthAdjust="spacing" textLength="133.9229" x="566.2734" y="1703.7529">__dequeue_entity()</text><path d="M506.2734,1783.3516 L516.2734,1783.3516 C531.2734,1783.3516 531.2734,1698.9063 546.2734,1698.9063 L556.2734,1698.9063 " fill="none" style="stroke:#181818;stroke-width:1.0;"/><rect fill="#F1F1F1" height="36.2969" rx="12.5" ry="12.5" style="stroke:#181818;stroke-width:1.5;" width="186.8311" x="556.2734" y="1737.0547"/><text fill="#000000" font-family="sans-serif" font-size="14" lengthAdjust="spacing" textLength="166.8311" x="566.2734" y="1760.0498">__update_load_avg_se()</text><rect fill="#F1F1F1" height="36.2969" rx="12.5" ry="12.5" style="stroke:#181818;stroke-width:1.5;" width="109.9063" x="793.1045" y="1652.6094"/><text fill="#000000" font-family="sans-serif" font-size="14" lengthAdjust="spacing" textLength="89.9063" x="803.1045" y="1675.6045">decay_load()</text><path d="M743.1045,1755.2031 L753.1045,1755.2031 C768.1045,1755.2031 768.1045,1670.7578 783.1045,1670.7578 L793.1045,1670.7578 " fill="none" style="stroke:#181818;stroke-width:1.0;"/><rect fill="#F1F1F1" height="36.2969" rx="12.5" ry="12.5" style="stroke:#181818;stroke-width:1.5;" width="109.9063" x="793.1045" y="1708.9063"/><text fill="#000000" font-family="sans-serif" font-size="14" lengthAdjust="spacing" textLength="89.9063" x="803.1045" y="1731.9014">decay_load()</text><path d="M743.1045,1755.2031 L753.1045,1755.2031 C768.1045,1755.2031 768.1045,1727.0547 783.1045,1727.0547 L793.1045,1727.0547 " fill="none" style="stroke:#181818;stroke-width:1.0;"/><rect fill="#F1F1F1" height="36.2969" rx="12.5" ry="12.5" style="stroke:#181818;stroke-width:1.5;" width="109.9063" x="793.1045" y="1765.2031"/><text fill="#000000" font-family="sans-serif" font-size="14" lengthAdjust="spacing" textLength="89.9063" x="803.1045" y="1788.1982">decay_load()</text><path d="M743.1045,1755.2031 L753.1045,1755.2031 C768.1045,1755.2031 768.1045,1783.3516 783.1045,1783.3516 L793.1045,1783.3516 " fill="none" style="stroke:#181818;stroke-width:1.0;"/><rect fill="#F1F1F1" height="36.2969" rx="12.5" ry="12.5" style="stroke:#181818;stroke-width:1.5;" width="236.4326" x="793.1045" y="1821.5"/><text fill="#000000" font-family="sans-serif" font-size="14" lengthAdjust="spacing" textLength="216.4326" x="803.1045" y="1844.4951">__accumulate_pelt_segments()</text><path d="M743.1045,1755.2031 L753.1045,1755.2031 C768.1045,1755.2031 768.1045,1839.6484 783.1045,1839.6484 L793.1045,1839.6484 " fill="none" style="stroke:#181818;stroke-width:1.0;"/><path d="M506.2734,1783.3516 L516.2734,1783.3516 C531.2734,1783.3516 531.2734,1755.2031 546.2734,1755.2031 L556.2734,1755.2031 " fill="none" style="stroke:#181818;stroke-width:1.0;"/><rect fill="#F1F1F1" height="36.2969" rx="12.5" ry="12.5" style="stroke:#181818;stroke-width:1.5;" width="212.4863" x="556.2734" y="1877.7969"/><text fill="#000000" font-family="sans-serif" font-size="14" lengthAdjust="spacing" textLength="192.4863" x="566.2734" y="1900.792">__update_load_avg_cfs_rq()</text><path d="M506.2734,1783.3516 L516.2734,1783.3516 C531.2734,1783.3516 531.2734,1895.9453 546.2734,1895.9453 L556.2734,1895.9453 " fill="none" style="stroke:#181818;stroke-width:1.0;"/><path d="M318.0527,1079.6406 L328.0527,1079.6406 C343.0527,1079.6406 343.0527,1783.3516 358.0527,1783.3516 L368.0527,1783.3516 " fill="none" style="stroke:#181818;stroke-width:1.0;"/><path d="M103.6641,1107.7891 L113.6641,1107.7891 C128.6641,1107.7891 128.6641,1079.6406 143.6641,1079.6406 L153.6641,1079.6406 " fill="none" style="stroke:#181818;stroke-width:1.0;"/><rect fill="#F1F1F1" height="36.2969" rx="12.5" ry="12.5" style="stroke:#181818;stroke-width:1.5;" width="183.3379" x="153.6641" y="1934.0938"/><text fill="#000000" font-family="sans-serif" font-size="14" lengthAdjust="spacing" textLength="163.3379" x="163.6641" y="1957.0889">fpsimd_thread_switch()</text><rect fill="#F1F1F1" height="36.2969" rx="12.5" ry="12.5" style="stroke:#181818;stroke-width:1.5;" width="198.2197" x="387.002" y="1934.0938"/><text fill="#000000" font-family="sans-serif" font-size="14" lengthAdjust="spacing" textLength="178.2197" x="397.002" y="1957.0889">fpsimd_save_user_state()</text><path d="M337.002,1952.2422 L347.002,1952.2422 C362.002,1952.2422 362.002,1952.2422 377.002,1952.2422 L387.002,1952.2422 " fill="none" style="stroke:#181818;stroke-width:1.0;"/><path d="M103.6641,1107.7891 L113.6641,1107.7891 C128.6641,1107.7891 128.6641,1952.2422 143.6641,1952.2422 L153.6641,1952.2422 " fill="none" style="stroke:#181818;stroke-width:1.0;"/><rect fill="#F1F1F1" height="36.2969" rx="12.5" ry="12.5" style="stroke:#181818;stroke-width:1.5;" width="216.9365" x="153.6641" y="1990.3906"/><text fill="#000000" font-family="sans-serif" font-size="14" lengthAdjust="spacing" textLength="196.9365" x="163.6641" y="2013.3857">tls_preserve_current_state()</text><path d="M103.6641,1107.7891 L113.6641,1107.7891 C128.6641,1107.7891 128.6641,2008.5391 143.6641,2008.5391 L153.6641,2008.5391 " fill="none" style="stroke:#181818;stroke-width:1.0;"/><rect fill="#F1F1F1" height="36.2969" rx="12.5" ry="12.5" style="stroke:#181818;stroke-width:1.5;" width="238.7842" x="153.6641" y="2046.6875"/><text fill="#000000" font-family="sans-serif" font-size="14" lengthAdjust="spacing" textLength="218.7842" x="163.6641" y="2069.6826">hw_breakpoint_thread_switch()</text><path d="M103.6641,1107.7891 L113.6641,1107.7891 C128.6641,1107.7891 128.6641,2064.8359 143.6641,2064.8359 L153.6641,2064.8359 " fill="none" style="stroke:#181818;stroke-width:1.0;"/><rect fill="#F1F1F1" height="36.2969" rx="12.5" ry="12.5" style="stroke:#181818;stroke-width:1.5;" width="261.8691" x="153.6641" y="2102.9844"/><text fill="#000000" font-family="sans-serif" font-size="14" lengthAdjust="spacing" textLength="241.8691" x="163.6641" y="2125.9795">erratum_1418040_thread_switch()</text><rect fill="#F1F1F1" height="36.2969" rx="12.5" ry="12.5" style="stroke:#181818;stroke-width:1.5;" width="152.8359" x="465.5332" y="2102.9844"/><text fill="#000000" font-family="sans-serif" font-size="14" lengthAdjust="spacing" textLength="132.8359" x="475.5332" y="2125.9795">this_cpu_has_cap()</text><rect fill="#F1F1F1" height="36.2969" rx="12.5" ry="12.5" style="stroke:#181818;stroke-width:1.5;" width="221.2842" x="668.3691" y="2102.9844"/><text fill="#000000" font-family="sans-serif" font-size="14" lengthAdjust="spacing" textLength="201.2842" x="678.3691" y="2125.9795">is_affected_midr_range_list()</text><path d="M618.3691,2121.1328 L628.3691,2121.1328 C643.3691,2121.1328 643.3691,2121.1328 658.3691,2121.1328 L668.3691,2121.1328 " fill="none" style="stroke:#181818;stroke-width:1.0;"/><path d="M415.5332,2121.1328 L425.5332,2121.1328 C440.5332,2121.1328 440.5332,2121.1328 455.5332,2121.1328 L465.5332,2121.1328 " fill="none" style="stroke:#181818;stroke-width:1.0;"/><path d="M103.6641,1107.7891 L113.6641,1107.7891 C128.6641,1107.7891 128.6641,2121.1328 143.6641,2121.1328 L153.6641,2121.1328 " fill="none" style="stroke:#181818;stroke-width:1.0;"/><rect fill="#F1F1F1" height="36.2969" rx="12.5" ry="12.5" style="stroke:#181818;stroke-width:1.5;" width="163.5547" x="153.6641" y="2159.2813"/><text fill="#000000" font-family="sans-serif" font-size="14" lengthAdjust="spacing" textLength="143.5547" x="163.6641" y="2182.2764">mte_thread_switch()</text><path d="M103.6641,1107.7891 L113.6641,1107.7891 C128.6641,1107.7891 128.6641,2177.4297 143.6641,2177.4297 L153.6641,2177.4297 " fill="none" style="stroke:#181818;stroke-width:1.0;"/><!--SRC=[xLLDRzf04BtxL-mn22N24IgKKzIabKg3MXMIwsZP7TihxFMo7wRy-uwn3O50gghgeL9FbjwRUMzcTZrxvpotlb1Q5jn4VUP4XZBaUDMB-drcB69XF8WoQ0zSoWQs8e0kFHAkFVxmu3RAYsn7DkpQlIa0bc_06QKXByMgpRiGUmoxi6pWO2Id2kmQn5w36ILMeEkAF7ShIBYohNWRBe9jaIC877QenTq8paNIbA2oL8KgiAjvRuW4-ssNiSCHAvcqI9zrcO2vIjKonrynp0GFr7rrelswbGkzl54uSS84BWJDDUCstRSFPBOE6F345A3LoaikWLVfInk9Wcztp6z205H2A49UAnlCwNmnBSZPNVOLYQDJ__lUVpp-_xCypDAXF_UR04ZyPoR44kDK8S5d5eazsdajvNY541pIBV0aqwJvtDNtYD2gkI9Oxx43dsrWIOehKoeYNgipj9RxK40yZCU3uU1i0JvJ3kYNXepJbvkk8q9vag3mjD8A9IrjNfrIVyhvHhoWRay5xv2UW_P9YBxbNFkdsIEhq3fLQXRVt0vkXpUZgpdtR8w63KOiVZ-9nvDunExd2rRJlUXgzdd1N1ciG2R9pgfby9JVYwQyuknxiuucxAj1FNtuqW7iewwKBNLzBj7qUNO8U3Uy_g1gHvgZPS-pw04J7d9F6QAKIgSJzhJuT3sE7gd5m5FIHXtTry-6tH8t_ma0]--></g></svg>