<svg xmlns="http://www.w3.org/2000/svg" xmlns:xlink="http://www.w3.org/1999/xlink" contentStyleType="text/css" height="1429px" preserveAspectRatio="none" style="width:964px;height:1429px;background:#FFFFFF;" version="1.1" viewBox="0 0 964 1429" width="964px" zoomAndPan="magnify"><defs/><g><rect fill="#F1F1F1" height="36.2969" rx="12.5" ry="12.5" style="stroke:#181818;stroke-width:1.5;" width="93.6641" x="10" y="695.5625"/><text fill="#000000" font-family="sans-serif" font-size="14" lengthAdjust="spacing" textLength="73.6641" x="20" y="718.5576">schedule()</text><rect fill="#F1F1F1" height="36.2969" rx="12.5" ry="12.5" style="stroke:#181818;stroke-width:1.5;" width="172.4551" x="153.6641" y="20"/><text fill="#000000" font-family="sans-serif" font-size="14" lengthAdjust="spacing" textLength="152.4551" x="163.6641" y="42.9951">wq_worker_sleeping()</text><rect fill="#F1F1F1" height="36.2969" rx="12.5" ry="12.5" style="stroke:#181818;stroke-width:1.5;" width="123.7627" x="376.1191" y="20"/><text fill="#000000" font-family="sans-serif" font-size="14" lengthAdjust="spacing" textLength="103.7627" x="386.1191" y="42.9951">kthread_data()</text><path d="M326.1191,38.1484 L336.1191,38.1484 C351.1191,38.1484 351.1191,38.1484 366.1191,38.1484 L376.1191,38.1484 " fill="none" style="stroke:#181818;stroke-width:1.0;"/><path d="M103.6641,713.7109 L113.6641,713.7109 C128.6641,713.7109 128.6641,38.1484 143.6641,38.1484 L153.6641,38.1484 " fill="none" style="stroke:#181818;stroke-width:1.0;"/><rect fill="#F1F1F1" height="36.2969" rx="12.5" ry="12.5" style="stroke:#181818;stroke-width:1.5;" width="203.4971" x="153.6641" y="76.2969"/><text fill="#000000" font-family="sans-serif" font-size="14" lengthAdjust="spacing" textLength="183.4971" x="163.6641" y="99.292">rcu_note_context_switch()</text><rect fill="#F1F1F1" height="36.2969" rx="12.5" ry="12.5" style="stroke:#181818;stroke-width:1.5;" width="76.4307" x="407.1611" y="76.2969"/><text fill="#000000" font-family="sans-serif" font-size="14" lengthAdjust="spacing" textLength="56.4307" x="417.1611" y="99.292">rcu_qs()</text><path d="M357.1611,94.4453 L367.1611,94.4453 C382.1611,94.4453 382.1611,94.4453 397.1611,94.4453 L407.1611,94.4453 " fill="none" style="stroke:#181818;stroke-width:1.0;"/><path d="M103.6641,713.7109 L113.6641,713.7109 C128.6641,713.7109 128.6641,94.4453 143.6641,94.4453 L153.6641,94.4453 " fill="none" style="stroke:#181818;stroke-width:1.0;"/><rect fill="#F1F1F1" height="36.2969" rx="12.5" ry="12.5" style="stroke:#181818;stroke-width:1.5;" width="292.1455" x="153.6641" y="132.5938"/><text fill="#000000" font-family="sans-serif" font-size="14" lengthAdjust="spacing" textLength="272.1455" x="163.6641" y="155.5889">raw_spin_rq_lock_nested.constprop.0()</text><rect fill="#F1F1F1" height="36.2969" rx="12.5" ry="12.5" style="stroke:#181818;stroke-width:1.5;" width="134.9121" x="495.8096" y="132.5938"/><text fill="#000000" font-family="sans-serif" font-size="14" lengthAdjust="spacing" textLength="114.9121" x="505.8096" y="155.5889">_raw_spin_lock()</text><path d="M445.8096,150.7422 L455.8096,150.7422 C470.8096,150.7422 470.8096,150.7422 485.8096,150.7422 L495.8096,150.7422 " fill="none" style="stroke:#181818;stroke-width:1.0;"/><path d="M103.6641,713.7109 L113.6641,713.7109 C128.6641,713.7109 128.6641,150.7422 143.6641,150.7422 L153.6641,150.7422 " fill="none" style="stroke:#181818;stroke-width:1.0;"/><rect fill="#F1F1F1" height="36.2969" rx="12.5" ry="12.5" style="stroke:#181818;stroke-width:1.5;" width="144.8516" x="153.6641" y="188.8906"/><text fill="#000000" font-family="sans-serif" font-size="14" lengthAdjust="spacing" textLength="124.8516" x="163.6641" y="211.8857">update_rq_clock()</text><path d="M103.6641,713.7109 L113.6641,713.7109 C128.6641,713.7109 128.6641,207.0391 143.6641,207.0391 L153.6641,207.0391 " fill="none" style="stroke:#181818;stroke-width:1.0;"/><rect fill="#F1F1F1" height="36.2969" rx="12.5" ry="12.5" style="stroke:#181818;stroke-width:1.5;" width="158.9063" x="153.6641" y="357.7813"/><text fill="#000000" font-family="sans-serif" font-size="14" lengthAdjust="spacing" textLength="138.9063" x="163.6641" y="380.7764">dequeue_task_fair()</text><rect fill="#F1F1F1" height="36.2969" rx="12.5" ry="12.5" style="stroke:#181818;stroke-width:1.5;" width="139.9229" x="362.5703" y="357.7813"/><text fill="#000000" font-family="sans-serif" font-size="14" lengthAdjust="spacing" textLength="119.9229" x="372.5703" y="380.7764">dequeue_entity()</text><rect fill="#F1F1F1" height="36.2969" rx="12.5" ry="12.5" style="stroke:#181818;stroke-width:1.5;" width="115.334" x="552.4932" y="217.0391"/><text fill="#000000" font-family="sans-serif" font-size="14" lengthAdjust="spacing" textLength="95.334" x="562.4932" y="240.0342">update_curr()</text><rect fill="#F1F1F1" height="36.2969" rx="12.5" ry="12.5" style="stroke:#181818;stroke-width:1.5;" width="184.0693" x="717.8271" y="188.8906"/><text fill="#000000" font-family="sans-serif" font-size="14" lengthAdjust="spacing" textLength="164.0693" x="727.8271" y="211.8857">update_min_vruntime()</text><path d="M667.8271,235.1875 L677.8271,235.1875 C692.8271,235.1875 692.8271,207.0391 707.8271,207.0391 L717.8271,207.0391 " fill="none" style="stroke:#181818;stroke-width:1.0;"/><rect fill="#F1F1F1" height="36.2969" rx="12.5" ry="12.5" style="stroke:#181818;stroke-width:1.5;" width="141.249" x="717.8271" y="245.1875"/><text fill="#000000" font-family="sans-serif" font-size="14" lengthAdjust="spacing" textLength="121.249" x="727.8271" y="268.1826">cpuacct_charge()</text><path d="M667.8271,235.1875 L677.8271,235.1875 C692.8271,235.1875 692.8271,263.3359 707.8271,263.3359 L717.8271,263.3359 " fill="none" style="stroke:#181818;stroke-width:1.0;"/><path d="M502.4932,375.9297 L512.4932,375.9297 C527.4932,375.9297 527.4932,235.1875 542.4932,235.1875 L552.4932,235.1875 " fill="none" style="stroke:#181818;stroke-width:1.0;"/><rect fill="#F1F1F1" height="36.2969" rx="12.5" ry="12.5" style="stroke:#181818;stroke-width:1.5;" width="186.8311" x="552.4932" y="301.4844"/><text fill="#000000" font-family="sans-serif" font-size="14" lengthAdjust="spacing" textLength="166.8311" x="562.4932" y="324.4795">__update_load_avg_se()</text><path d="M502.4932,375.9297 L512.4932,375.9297 C527.4932,375.9297 527.4932,319.6328 542.4932,319.6328 L552.4932,319.6328 " fill="none" style="stroke:#181818;stroke-width:1.0;"/><rect fill="#F1F1F1" height="36.2969" rx="12.5" ry="12.5" style="stroke:#181818;stroke-width:1.5;" width="212.4863" x="552.4932" y="357.7813"/><text fill="#000000" font-family="sans-serif" font-size="14" lengthAdjust="spacing" textLength="192.4863" x="562.4932" y="380.7764">__update_load_avg_cfs_rq()</text><path d="M502.4932,375.9297 L512.4932,375.9297 C527.4932,375.9297 527.4932,375.9297 542.4932,375.9297 L552.4932,375.9297 " fill="none" style="stroke:#181818;stroke-width:1.0;"/><rect fill="#F1F1F1" height="36.2969" rx="12.5" ry="12.5" style="stroke:#181818;stroke-width:1.5;" width="127.7891" x="552.4932" y="414.0781"/><text fill="#000000" font-family="sans-serif" font-size="14" lengthAdjust="spacing" textLength="107.7891" x="562.4932" y="437.0732">clear_buddies()</text><path d="M502.4932,375.9297 L512.4932,375.9297 C527.4932,375.9297 527.4932,432.2266 542.4932,432.2266 L552.4932,432.2266 " fill="none" style="stroke:#181818;stroke-width:1.0;"/><rect fill="#F1F1F1" height="36.2969" rx="12.5" ry="12.5" style="stroke:#181818;stroke-width:1.5;" width="155.1396" x="552.4932" y="470.375"/><text fill="#000000" font-family="sans-serif" font-size="14" lengthAdjust="spacing" textLength="135.1396" x="562.4932" y="493.3701">update_cfs_group()</text><path d="M502.4932,375.9297 L512.4932,375.9297 C527.4932,375.9297 527.4932,488.5234 542.4932,488.5234 L552.4932,488.5234 " fill="none" style="stroke:#181818;stroke-width:1.0;"/><rect fill="#F1F1F1" height="36.2969" rx="12.5" ry="12.5" style="stroke:#181818;stroke-width:1.5;" width="184.0693" x="552.4932" y="526.6719"/><text fill="#000000" font-family="sans-serif" font-size="14" lengthAdjust="spacing" textLength="164.0693" x="562.4932" y="549.667">update_min_vruntime()</text><path d="M502.4932,375.9297 L512.4932,375.9297 C527.4932,375.9297 527.4932,544.8203 542.4932,544.8203 L552.4932,544.8203 " fill="none" style="stroke:#181818;stroke-width:1.0;"/><path d="M312.5703,375.9297 L322.5703,375.9297 C337.5703,375.9297 337.5703,375.9297 352.5703,375.9297 L362.5703,375.9297 " fill="none" style="stroke:#181818;stroke-width:1.0;"/><rect fill="#F1F1F1" height="36.2969" rx="12.5" ry="12.5" style="stroke:#181818;stroke-width:1.5;" width="127.0645" x="362.5703" y="414.0781"/><text fill="#000000" font-family="sans-serif" font-size="14" lengthAdjust="spacing" textLength="107.0645" x="372.5703" y="437.0732">hrtick_update()</text><path d="M312.5703,375.9297 L322.5703,375.9297 C337.5703,375.9297 337.5703,432.2266 352.5703,432.2266 L362.5703,432.2266 " fill="none" style="stroke:#181818;stroke-width:1.0;"/><path d="M103.6641,713.7109 L113.6641,713.7109 C128.6641,713.7109 128.6641,375.9297 143.6641,375.9297 L153.6641,375.9297 " fill="none" style="stroke:#181818;stroke-width:1.0;"/><rect fill="#F1F1F1" height="36.2969" rx="12.5" ry="12.5" style="stroke:#181818;stroke-width:1.5;" width="134.2354" x="153.6641" y="808.1563"/><text fill="#000000" font-family="sans-serif" font-size="14" lengthAdjust="spacing" textLength="114.2354" x="163.6641" y="831.1514">pick_next_task()</text><rect fill="#F1F1F1" height="36.2969" rx="12.5" ry="12.5" style="stroke:#181818;stroke-width:1.5;" width="164.3887" x="337.8994" y="808.1563"/><text fill="#000000" font-family="sans-serif" font-size="14" lengthAdjust="spacing" textLength="144.3887" x="347.8994" y="831.1514">pick_next_task_fair()</text><rect fill="#F1F1F1" height="36.2969" rx="12.5" ry="12.5" style="stroke:#181818;stroke-width:1.5;" width="182.6064" x="552.2881" y="582.9688"/><text fill="#000000" font-family="sans-serif" font-size="14" lengthAdjust="spacing" textLength="162.6064" x="562.2881" y="605.9639">check_cfs_rq_runtime()</text><path d="M502.2881,826.3047 L512.2881,826.3047 C527.2881,826.3047 527.2881,601.1172 542.2881,601.1172 L552.2881,601.1172 " fill="none" style="stroke:#181818;stroke-width:1.0;"/><rect fill="#F1F1F1" height="36.2969" rx="12.5" ry="12.5" style="stroke:#181818;stroke-width:1.5;" width="145.4053" x="552.2881" y="639.2656"/><text fill="#000000" font-family="sans-serif" font-size="14" lengthAdjust="spacing" textLength="125.4053" x="562.2881" y="662.2607">pick_next_entity()</text><path d="M502.2881,826.3047 L512.2881,826.3047 C527.2881,826.3047 527.2881,657.4141 542.2881,657.4141 L552.2881,657.4141 " fill="none" style="stroke:#181818;stroke-width:1.0;"/><rect fill="#F1F1F1" height="36.2969" rx="12.5" ry="12.5" style="stroke:#181818;stroke-width:1.5;" width="145.4053" x="552.2881" y="695.5625"/><text fill="#000000" font-family="sans-serif" font-size="14" lengthAdjust="spacing" textLength="125.4053" x="562.2881" y="718.5576">pick_next_entity()</text><path d="M502.2881,826.3047 L512.2881,826.3047 C527.2881,826.3047 527.2881,713.7109 542.2881,713.7109 L552.2881,713.7109 " fill="none" style="stroke:#181818;stroke-width:1.0;"/><rect fill="#F1F1F1" height="36.2969" rx="12.5" ry="12.5" style="stroke:#181818;stroke-width:1.5;" width="138.2207" x="552.2881" y="751.8594"/><text fill="#000000" font-family="sans-serif" font-size="14" lengthAdjust="spacing" textLength="118.2207" x="562.2881" y="774.8545">set_next_entity()</text><rect fill="#F1F1F1" height="36.2969" rx="12.5" ry="12.5" style="stroke:#181818;stroke-width:1.5;" width="127.7891" x="740.5088" y="695.5625"/><text fill="#000000" font-family="sans-serif" font-size="14" lengthAdjust="spacing" textLength="107.7891" x="750.5088" y="718.5576">clear_buddies()</text><path d="M690.5088,770.0078 L700.5088,770.0078 C715.5088,770.0078 715.5088,713.7109 730.5088,713.7109 L740.5088,713.7109 " fill="none" style="stroke:#181818;stroke-width:1.0;"/><rect fill="#F1F1F1" height="36.2969" rx="12.5" ry="12.5" style="stroke:#181818;stroke-width:1.5;" width="186.8311" x="740.5088" y="751.8594"/><text fill="#000000" font-family="sans-serif" font-size="14" lengthAdjust="spacing" textLength="166.8311" x="750.5088" y="774.8545">__update_load_avg_se()</text><path d="M690.5088,770.0078 L700.5088,770.0078 C715.5088,770.0078 715.5088,770.0078 730.5088,770.0078 L740.5088,770.0078 " fill="none" style="stroke:#181818;stroke-width:1.0;"/><rect fill="#F1F1F1" height="36.2969" rx="12.5" ry="12.5" style="stroke:#181818;stroke-width:1.5;" width="212.4863" x="740.5088" y="808.1563"/><text fill="#000000" font-family="sans-serif" font-size="14" lengthAdjust="spacing" textLength="192.4863" x="750.5088" y="831.1514">__update_load_avg_cfs_rq()</text><path d="M690.5088,770.0078 L700.5088,770.0078 C715.5088,770.0078 715.5088,826.3047 730.5088,826.3047 L740.5088,826.3047 " fill="none" style="stroke:#181818;stroke-width:1.0;"/><path d="M502.2881,826.3047 L512.2881,826.3047 C527.2881,826.3047 527.2881,770.0078 542.2881,770.0078 L552.2881,770.0078 " fill="none" style="stroke:#181818;stroke-width:1.0;"/><rect fill="#F1F1F1" height="36.2969" rx="12.5" ry="12.5" style="stroke:#181818;stroke-width:1.5;" width="140.3535" x="552.2881" y="864.4531"/><text fill="#000000" font-family="sans-serif" font-size="14" lengthAdjust="spacing" textLength="120.3535" x="562.2881" y="887.4482">put_prev_entity()</text><rect fill="#F1F1F1" height="36.2969" rx="12.5" ry="12.5" style="stroke:#181818;stroke-width:1.5;" width="182.6064" x="742.6416" y="864.4531"/><text fill="#000000" font-family="sans-serif" font-size="14" lengthAdjust="spacing" textLength="162.6064" x="752.6416" y="887.4482">check_cfs_rq_runtime()</text><path d="M692.6416,882.6016 L702.6416,882.6016 C717.6416,882.6016 717.6416,882.6016 732.6416,882.6016 L742.6416,882.6016 " fill="none" style="stroke:#181818;stroke-width:1.0;"/><path d="M502.2881,826.3047 L512.2881,826.3047 C527.2881,826.3047 527.2881,882.6016 542.2881,882.6016 L552.2881,882.6016 " fill="none" style="stroke:#181818;stroke-width:1.0;"/><rect fill="#F1F1F1" height="36.2969" rx="12.5" ry="12.5" style="stroke:#181818;stroke-width:1.5;" width="138.2207" x="552.2881" y="977.0469"/><text fill="#000000" font-family="sans-serif" font-size="14" lengthAdjust="spacing" textLength="118.2207" x="562.2881" y="1000.042">set_next_entity()</text><rect fill="#F1F1F1" height="36.2969" rx="12.5" ry="12.5" style="stroke:#181818;stroke-width:1.5;" width="127.7891" x="740.5088" y="920.75"/><text fill="#000000" font-family="sans-serif" font-size="14" lengthAdjust="spacing" textLength="107.7891" x="750.5088" y="943.7451">clear_buddies()</text><path d="M690.5088,995.1953 L700.5088,995.1953 C715.5088,995.1953 715.5088,938.8984 730.5088,938.8984 L740.5088,938.8984 " fill="none" style="stroke:#181818;stroke-width:1.0;"/><rect fill="#F1F1F1" height="36.2969" rx="12.5" ry="12.5" style="stroke:#181818;stroke-width:1.5;" width="186.8311" x="740.5088" y="977.0469"/><text fill="#000000" font-family="sans-serif" font-size="14" lengthAdjust="spacing" textLength="166.8311" x="750.5088" y="1000.042">__update_load_avg_se()</text><path d="M690.5088,995.1953 L700.5088,995.1953 C715.5088,995.1953 715.5088,995.1953 730.5088,995.1953 L740.5088,995.1953 " fill="none" style="stroke:#181818;stroke-width:1.0;"/><rect fill="#F1F1F1" height="36.2969" rx="12.5" ry="12.5" style="stroke:#181818;stroke-width:1.5;" width="212.4863" x="740.5088" y="1033.3438"/><text fill="#000000" font-family="sans-serif" font-size="14" lengthAdjust="spacing" textLength="192.4863" x="750.5088" y="1056.3389">__update_load_avg_cfs_rq()</text><path d="M690.5088,995.1953 L700.5088,995.1953 C715.5088,995.1953 715.5088,1051.4922 730.5088,1051.4922 L740.5088,1051.4922 " fill="none" style="stroke:#181818;stroke-width:1.0;"/><path d="M502.2881,826.3047 L512.2881,826.3047 C527.2881,826.3047 527.2881,995.1953 542.2881,995.1953 L552.2881,995.1953 " fill="none" style="stroke:#181818;stroke-width:1.0;"/><path d="M287.8994,826.3047 L297.8994,826.3047 C312.8994,826.3047 312.8994,826.3047 327.8994,826.3047 L337.8994,826.3047 " fill="none" style="stroke:#181818;stroke-width:1.0;"/><path d="M103.6641,713.7109 L113.6641,713.7109 C128.6641,713.7109 128.6641,826.3047 143.6641,826.3047 L153.6641,826.3047 " fill="none" style="stroke:#181818;stroke-width:1.0;"/><rect fill="#F1F1F1" height="36.2969" rx="12.5" ry="12.5" style="stroke:#181818;stroke-width:1.5;" width="139.1572" x="153.6641" y="1117.7891"/><text fill="#000000" font-family="sans-serif" font-size="14" lengthAdjust="spacing" textLength="119.1572" x="163.6641" y="1140.7842">psi_task_switch()</text><rect fill="#F1F1F1" height="36.2969" rx="12.5" ry="12.5" style="stroke:#181818;stroke-width:1.5;" width="157.4844" x="342.8213" y="1089.6406"/><text fill="#000000" font-family="sans-serif" font-size="14" lengthAdjust="spacing" textLength="137.4844" x="352.8213" y="1112.6357">psi_group_change()</text><path d="M292.8213,1135.9375 L302.8213,1135.9375 C317.8213,1135.9375 317.8213,1107.7891 332.8213,1107.7891 L342.8213,1107.7891 " fill="none" style="stroke:#181818;stroke-width:1.0;"/><rect fill="#F1F1F1" height="36.2969" rx="12.5" ry="12.5" style="stroke:#181818;stroke-width:1.5;" width="175.9414" x="342.8213" y="1145.9375"/><text fill="#000000" font-family="sans-serif" font-size="14" lengthAdjust="spacing" textLength="155.9414" x="352.8213" y="1168.9326">iterate_groups.isra.0()</text><path d="M292.8213,1135.9375 L302.8213,1135.9375 C317.8213,1135.9375 317.8213,1164.0859 332.8213,1164.0859 L342.8213,1164.0859 " fill="none" style="stroke:#181818;stroke-width:1.0;"/><path d="M103.6641,713.7109 L113.6641,713.7109 C128.6641,713.7109 128.6641,1135.9375 143.6641,1135.9375 L153.6641,1135.9375 " fill="none" style="stroke:#181818;stroke-width:1.0;"/><rect fill="#F1F1F1" height="36.2969" rx="12.5" ry="12.5" style="stroke:#181818;stroke-width:1.5;" width="204.8643" x="153.6641" y="1202.2344"/><text fill="#000000" font-family="sans-serif" font-size="14" lengthAdjust="spacing" textLength="184.8643" x="163.6641" y="1225.2295">__traceiter_sched_switch()</text><path d="M103.6641,713.7109 L113.6641,713.7109 C128.6641,713.7109 128.6641,1220.3828 143.6641,1220.3828 L153.6641,1220.3828 " fill="none" style="stroke:#181818;stroke-width:1.0;"/><rect fill="#F1F1F1" height="36.2969" rx="12.5" ry="12.5" style="stroke:#181818;stroke-width:1.5;" width="168.1416" x="153.6641" y="1258.5313"/><text fill="#000000" font-family="sans-serif" font-size="14" lengthAdjust="spacing" textLength="148.1416" x="163.6641" y="1281.5264">switch_mm_irqs_off()</text><path d="M103.6641,713.7109 L113.6641,713.7109 C128.6641,713.7109 128.6641,1276.6797 143.6641,1276.6797 L153.6641,1276.6797 " fill="none" style="stroke:#181818;stroke-width:1.0;"/><rect fill="#F1F1F1" height="36.2969" rx="12.5" ry="12.5" style="stroke:#181818;stroke-width:1.5;" width="145.7813" x="153.6641" y="1314.8281"/><text fill="#000000" font-family="sans-serif" font-size="14" lengthAdjust="spacing" textLength="125.7813" x="163.6641" y="1337.8232">__switch_to_xtra()</text><rect fill="#F1F1F1" height="36.2969" rx="12.5" ry="12.5" style="stroke:#181818;stroke-width:1.5;" width="190.5977" x="349.4453" y="1314.8281"/><text fill="#000000" font-family="sans-serif" font-size="14" lengthAdjust="spacing" textLength="170.5977" x="359.4453" y="1337.8232">update_spec_ctrl_cond()</text><path d="M299.4453,1332.9766 L309.4453,1332.9766 C324.4453,1332.9766 324.4453,1332.9766 339.4453,1332.9766 L349.4453,1332.9766 " fill="none" style="stroke:#181818;stroke-width:1.0;"/><path d="M103.6641,713.7109 L113.6641,713.7109 C128.6641,713.7109 128.6641,1332.9766 143.6641,1332.9766 L153.6641,1332.9766 " fill="none" style="stroke:#181818;stroke-width:1.0;"/><rect fill="#F1F1F1" height="36.2969" rx="12.5" ry="12.5" style="stroke:#181818;stroke-width:1.5;" width="156.835" x="153.6641" y="1371.125"/><text fill="#000000" font-family="sans-serif" font-size="14" lengthAdjust="spacing" textLength="136.835" x="163.6641" y="1394.1201">finish_task_switch()</text><rect fill="#F1F1F1" height="36.2969" rx="12.5" ry="12.5" style="stroke:#181818;stroke-width:1.5;" width="167.3008" x="360.499" y="1371.125"/><text fill="#000000" font-family="sans-serif" font-size="14" lengthAdjust="spacing" textLength="147.3008" x="370.499" y="1394.1201">raw_spin_rq_unlock()</text><path d="M310.499,1389.2734 L320.499,1389.2734 C335.499,1389.2734 335.499,1389.2734 350.499,1389.2734 L360.499,1389.2734 " fill="none" style="stroke:#181818;stroke-width:1.0;"/><path d="M103.6641,713.7109 L113.6641,713.7109 C128.6641,713.7109 128.6641,1389.2734 143.6641,1389.2734 L153.6641,1389.2734 " fill="none" style="stroke:#181818;stroke-width:1.0;"/><!--SRC=[lLHDRnen4Btlh_0HX88WYahAAMhIIgL1hGh9TUHuPrcBNTkCnv3y-tfPyvLGUkjjzUQzcUTdpzvvbiIrDdajNTOJNfMOXmextQpN4viLR2mjaS1NY4wRnHRlYIMNX3A7NB9igQG26Ci8oXh6LmQ_qQpAn6-gAv-OSWC-zW9QGMNL4WnwnhmVXPuTMTSV91NigGslLGSNPsAZLGSmnrN0WC3IBw6GcbA37Ow6DR-ruBw52fHu1om60MiAaLxZlgPSa4eng5BIOWSBWAIfR0n2hXVWBzHKuQFdNLrLA0bUGfvhzEzjHUQ2R73ly8_MH4ciOtujeKt2wMsWCVycYyGx1Oy2YavAZBNM7PmU_4Xscj_VS8zy1Zv_selv_Jj05nWSuVh3g0l7-L_sXFEw3Vfa1HfqUw_DEpAxToGq8pMTjYNVrvvaUlzn2fDKs31WkvV73KNx3NKDcbOUR57iLAd25bvZWpGd6VOE5IYcgjdJl5KKscXVdh5ylAd1f7Mxm_YlIF-Bx5Sb3JzD7yKQoMjhnB1_FRY-wOywCybYXauCHcBuUJoy7Gz7udus5qsvctMct-V2sq0AHQuzatu97FNTR2BNKlnkRsuiVZeqauSVEq1yDMjDrjJn2hF9y_H0-7HpzKKt4oaw4S_Jx04B6IgE2cNp-ECQYwVvjwlRx35c7-GYzaQJtTlObzvYRVO7]--></g></svg>