<?xml version="1.0" standalone="no"?>
<!DOCTYPE svg PUBLIC "-//W3C//DTD SVG 1.1//EN" "http://www.w3.org/Graphics/SVG/1.1/DTD/svg11.dtd">
<svg version="1.1" width="1200" height="294" onload="init(evt)" viewBox="0 0 1200 294" xmlns="http://www.w3.org/2000/svg" xmlns:xlink="http://www.w3.org/1999/xlink">
<!-- Flame graph stack visualization. See https://github.com/brendangregg/FlameGraph for latest version, and http://www.brendangregg.com/flamegraphs.html for examples. -->
<!-- NOTES:  -->
<defs>
	<linearGradient id="background" y1="0" y2="1" x1="0" x2="0" >
		<stop stop-color="#eeeeee" offset="5%" />
		<stop stop-color="#eeeeb0" offset="95%" />
	</linearGradient>
</defs>
<style type="text/css">
	text { font-family:Verdana; font-size:12px; fill:rgb(0,0,0); }
	#search, #ignorecase { opacity:0.1; cursor:pointer; }
	#search:hover, #search.show, #ignorecase:hover, #ignorecase.show { opacity:1; }
	#subtitle { text-anchor:middle; font-color:rgb(160,160,160); }
	#title { text-anchor:middle; font-size:17px}
	#unzoom { cursor:pointer; }
	#frames > *:hover { stroke:black; stroke-width:0.5; cursor:pointer; }
	.hide { display:none; }
	.parent { opacity:0.5; }
</style>
<script type="text/ecmascript">
<![CDATA[
	"use strict";
	var details, searchbtn, unzoombtn, matchedtxt, svg, searching, currentSearchTerm, ignorecase, ignorecaseBtn;
	function init(evt) {
		details = document.getElementById("details").firstChild;
		searchbtn = document.getElementById("search");
		ignorecaseBtn = document.getElementById("ignorecase");
		unzoombtn = document.getElementById("unzoom");
		matchedtxt = document.getElementById("matched");
		svg = document.getElementsByTagName("svg")[0];
		searching = 0;
		currentSearchTerm = null;

		// use GET parameters to restore a flamegraphs state.
		var params = get_params();
		if (params.x && params.y)
			zoom(find_group(document.querySelector('[x="' + params.x + '"][y="' + params.y + '"]')));
                if (params.s) search(params.s);
	}

	// event listeners
	window.addEventListener("click", function(e) {
		var target = find_group(e.target);
		if (target) {
			if (target.nodeName == "a") {
				if (e.ctrlKey === false) return;
				e.preventDefault();
			}
			if (target.classList.contains("parent")) unzoom(true);
			zoom(target);
			if (!document.querySelector('.parent')) {
				// we have basically done a clearzoom so clear the url
				var params = get_params();
				if (params.x) delete params.x;
				if (params.y) delete params.y;
				history.replaceState(null, null, parse_params(params));
				unzoombtn.classList.add("hide");
				return;
			}

			// set parameters for zoom state
			var el = target.querySelector("rect");
			if (el && el.attributes && el.attributes.y && el.attributes._orig_x) {
				var params = get_params()
				params.x = el.attributes._orig_x.value;
				params.y = el.attributes.y.value;
				history.replaceState(null, null, parse_params(params));
			}
		}
		else if (e.target.id == "unzoom") clearzoom();
		else if (e.target.id == "search") search_prompt();
		else if (e.target.id == "ignorecase") toggle_ignorecase();
	}, false)

	// mouse-over for info
	// show
	window.addEventListener("mouseover", function(e) {
		var target = find_group(e.target);
		if (target) details.nodeValue = "Function: " + g_to_text(target);
	}, false)

	// clear
	window.addEventListener("mouseout", function(e) {
		var target = find_group(e.target);
		if (target) details.nodeValue = ' ';
	}, false)

	// ctrl-F for search
	// ctrl-I to toggle case-sensitive search
	window.addEventListener("keydown",function (e) {
		if (e.keyCode === 114 || (e.ctrlKey && e.keyCode === 70)) {
			e.preventDefault();
			search_prompt();
		}
		else if (e.ctrlKey && e.keyCode === 73) {
			e.preventDefault();
			toggle_ignorecase();
		}
	}, false)

	// functions
	function get_params() {
		var params = {};
		var paramsarr = window.location.search.substr(1).split('&');
		for (var i = 0; i < paramsarr.length; ++i) {
			var tmp = paramsarr[i].split("=");
			if (!tmp[0] || !tmp[1]) continue;
			params[tmp[0]]  = decodeURIComponent(tmp[1]);
		}
		return params;
	}
	function parse_params(params) {
		var uri = "?";
		for (var key in params) {
			uri += key + '=' + encodeURIComponent(params[key]) + '&';
		}
		if (uri.slice(-1) == "&")
			uri = uri.substring(0, uri.length - 1);
		if (uri == '?')
			uri = window.location.href.split('?')[0];
		return uri;
	}
	function find_child(node, selector) {
		var children = node.querySelectorAll(selector);
		if (children.length) return children[0];
	}
	function find_group(node) {
		var parent = node.parentElement;
		if (!parent) return;
		if (parent.id == "frames") return node;
		return find_group(parent);
	}
	function orig_save(e, attr, val) {
		if (e.attributes["_orig_" + attr] != undefined) return;
		if (e.attributes[attr] == undefined) return;
		if (val == undefined) val = e.attributes[attr].value;
		e.setAttribute("_orig_" + attr, val);
	}
	function orig_load(e, attr) {
		if (e.attributes["_orig_"+attr] == undefined) return;
		e.attributes[attr].value = e.attributes["_orig_" + attr].value;
		e.removeAttribute("_orig_"+attr);
	}
	function g_to_text(e) {
		var text = find_child(e, "title").firstChild.nodeValue;
		return (text)
	}
	function g_to_func(e) {
		var func = g_to_text(e);
		// if there's any manipulation we want to do to the function
		// name before it's searched, do it here before returning.
		return (func);
	}
	function update_text(e) {
		var r = find_child(e, "rect");
		var t = find_child(e, "text");
		var w = parseFloat(r.attributes.width.value) -3;
		var txt = find_child(e, "title").textContent.replace(/\([^(]*\)$/,"");
		t.attributes.x.value = parseFloat(r.attributes.x.value) + 3;

		// Smaller than this size won't fit anything
		if (w < 2 * 12 * 0.59) {
			t.textContent = "";
			return;
		}

		t.textContent = txt;
		var sl = t.getSubStringLength(0, txt.length);
		// check if only whitespace or if we can fit the entire string into width w
		if (/^ *$/.test(txt) || sl < w)
			return;

		// this isn't perfect, but gives a good starting point
		// and avoids calling getSubStringLength too often
		var start = Math.floor((w/sl) * txt.length);
		for (var x = start; x > 0; x = x-2) {
			if (t.getSubStringLength(0, x + 2) <= w) {
				t.textContent = txt.substring(0, x) + "..";
				return;
			}
		}
		t.textContent = "";
	}

	// zoom
	function zoom_reset(e) {
		if (e.attributes != undefined) {
			orig_load(e, "x");
			orig_load(e, "width");
		}
		if (e.childNodes == undefined) return;
		for (var i = 0, c = e.childNodes; i < c.length; i++) {
			zoom_reset(c[i]);
		}
	}
	function zoom_child(e, x, ratio) {
		if (e.attributes != undefined) {
			if (e.attributes.x != undefined) {
				orig_save(e, "x");
				e.attributes.x.value = (parseFloat(e.attributes.x.value) - x - 10) * ratio + 10;
				if (e.tagName == "text")
					e.attributes.x.value = find_child(e.parentNode, "rect[x]").attributes.x.value + 3;
			}
			if (e.attributes.width != undefined) {
				orig_save(e, "width");
				e.attributes.width.value = parseFloat(e.attributes.width.value) * ratio;
			}
		}

		if (e.childNodes == undefined) return;
		for (var i = 0, c = e.childNodes; i < c.length; i++) {
			zoom_child(c[i], x - 10, ratio);
		}
	}
	function zoom_parent(e) {
		if (e.attributes) {
			if (e.attributes.x != undefined) {
				orig_save(e, "x");
				e.attributes.x.value = 10;
			}
			if (e.attributes.width != undefined) {
				orig_save(e, "width");
				e.attributes.width.value = parseInt(svg.width.baseVal.value) - (10 * 2);
			}
		}
		if (e.childNodes == undefined) return;
		for (var i = 0, c = e.childNodes; i < c.length; i++) {
			zoom_parent(c[i]);
		}
	}
	function zoom(node) {
		var attr = find_child(node, "rect").attributes;
		var width = parseFloat(attr.width.value);
		var xmin = parseFloat(attr.x.value);
		var xmax = parseFloat(xmin + width);
		var ymin = parseFloat(attr.y.value);
		var ratio = (svg.width.baseVal.value - 2 * 10) / width;

		// XXX: Workaround for JavaScript float issues (fix me)
		var fudge = 0.0001;

		unzoombtn.classList.remove("hide");

		var el = document.getElementById("frames").children;
		for (var i = 0; i < el.length; i++) {
			var e = el[i];
			var a = find_child(e, "rect").attributes;
			var ex = parseFloat(a.x.value);
			var ew = parseFloat(a.width.value);
			var upstack;
			// Is it an ancestor
			if (0 == 0) {
				upstack = parseFloat(a.y.value) > ymin;
			} else {
				upstack = parseFloat(a.y.value) < ymin;
			}
			if (upstack) {
				// Direct ancestor
				if (ex <= xmin && (ex+ew+fudge) >= xmax) {
					e.classList.add("parent");
					zoom_parent(e);
					update_text(e);
				}
				// not in current path
				else
					e.classList.add("hide");
			}
			// Children maybe
			else {
				// no common path
				if (ex < xmin || ex + fudge >= xmax) {
					e.classList.add("hide");
				}
				else {
					zoom_child(e, xmin, ratio);
					update_text(e);
				}
			}
		}
		search();
	}
	function unzoom(dont_update_text) {
		unzoombtn.classList.add("hide");
		var el = document.getElementById("frames").children;
		for(var i = 0; i < el.length; i++) {
			el[i].classList.remove("parent");
			el[i].classList.remove("hide");
			zoom_reset(el[i]);
			if(!dont_update_text) update_text(el[i]);
		}
		search();
	}
	function clearzoom() {
		unzoom();

		// remove zoom state
		var params = get_params();
		if (params.x) delete params.x;
		if (params.y) delete params.y;
		history.replaceState(null, null, parse_params(params));
	}

	// search
	function toggle_ignorecase() {
		ignorecase = !ignorecase;
		if (ignorecase) {
			ignorecaseBtn.classList.add("show");
		} else {
			ignorecaseBtn.classList.remove("show");
		}
		reset_search();
		search();
	}
	function reset_search() {
		var el = document.querySelectorAll("#frames rect");
		for (var i = 0; i < el.length; i++) {
			orig_load(el[i], "fill")
		}
		var params = get_params();
		delete params.s;
		history.replaceState(null, null, parse_params(params));
	}
	function search_prompt() {
		if (!searching) {
			var term = prompt("Enter a search term (regexp " +
			    "allowed, eg: ^ext4_)"
			    + (ignorecase ? ", ignoring case" : "")
			    + "\nPress Ctrl-i to toggle case sensitivity", "");
			if (term != null) search(term);
		} else {
			reset_search();
			searching = 0;
			currentSearchTerm = null;
			searchbtn.classList.remove("show");
			searchbtn.firstChild.nodeValue = "Search"
			matchedtxt.classList.add("hide");
			matchedtxt.firstChild.nodeValue = ""
		}
	}
	function search(term) {
		if (term) currentSearchTerm = term;
		if (currentSearchTerm === null) return;

		var re = new RegExp(currentSearchTerm, ignorecase ? 'i' : '');
		var el = document.getElementById("frames").children;
		var matches = new Object();
		var maxwidth = 0;
		for (var i = 0; i < el.length; i++) {
			var e = el[i];
			var func = g_to_func(e);
			var rect = find_child(e, "rect");
			if (func == null || rect == null)
				continue;

			// Save max width. Only works as we have a root frame
			var w = parseFloat(rect.attributes.width.value);
			if (w > maxwidth)
				maxwidth = w;

			if (func.match(re)) {
				// highlight
				var x = parseFloat(rect.attributes.x.value);
				orig_save(rect, "fill");
				rect.attributes.fill.value = "rgb(230,0,230)";

				// remember matches
				if (matches[x] == undefined) {
					matches[x] = w;
				} else {
					if (w > matches[x]) {
						// overwrite with parent
						matches[x] = w;
					}
				}
				searching = 1;
			}
		}
		if (!searching)
			return;
		var params = get_params();
		params.s = currentSearchTerm;
		history.replaceState(null, null, parse_params(params));

		searchbtn.classList.add("show");
		searchbtn.firstChild.nodeValue = "Reset Search";

		// calculate percent matched, excluding vertical overlap
		var count = 0;
		var lastx = -1;
		var lastw = 0;
		var keys = Array();
		for (k in matches) {
			if (matches.hasOwnProperty(k))
				keys.push(k);
		}
		// sort the matched frames by their x location
		// ascending, then width descending
		keys.sort(function(a, b){
			return a - b;
		});
		// Step through frames saving only the biggest bottom-up frames
		// thanks to the sort order. This relies on the tree property
		// where children are always smaller than their parents.
		var fudge = 0.0001;	// JavaScript floating point
		for (var k in keys) {
			var x = parseFloat(keys[k]);
			var w = matches[keys[k]];
			if (x >= lastx + lastw - fudge) {
				count += w;
				lastx = x;
				lastw = w;
			}
		}
		// display matched percent
		matchedtxt.classList.remove("hide");
		var pct = 100 * count / maxwidth;
		if (pct != 100) pct = pct.toFixed(1)
		matchedtxt.firstChild.nodeValue = "Matched: " + pct + "%";
	}
]]>
</script>
<rect x="0.0" y="0" width="1200.0" height="294.0" fill="url(#background)"  />
<text id="title" x="600.00" y="24" >Flame Graph</text>
<text id="details" x="10.00" y="277" > </text>
<text id="unzoom" x="10.00" y="24" class="hide">Reset Zoom</text>
<text id="search" x="1090.00" y="24" >Search</text>
<text id="ignorecase" x="1174.00" y="24" >ic</text>
<text id="matched" x="1090.00" y="277" > </text>
<g id="frames">
<g >
<title>kworker/18:0-ev (2 samples, 1.71%)</title><rect x="201.6" y="181" width="20.2" height="15.0" fill="rgb(247,197,47)" rx="2" ry="2" />
<text  x="204.62" y="191.5" ></text>
</g>
<g >
<title>do_futex (2 samples, 1.71%)</title><rect x="10.0" y="197" width="20.2" height="15.0" fill="rgb(245,184,44)" rx="2" ry="2" />
<text  x="13.00" y="207.5" ></text>
</g>
<g >
<title>kworker/3:1-eve (1 samples, 0.85%)</title><rect x="342.8" y="181" width="10.1" height="15.0" fill="rgb(237,151,36)" rx="2" ry="2" />
<text  x="345.82" y="191.5" ></text>
</g>
<g >
<title>ret_from_fork (1 samples, 0.85%)</title><rect x="40.3" y="181" width="10.0" height="15.0" fill="rgb(227,105,25)" rx="2" ry="2" />
<text  x="43.26" y="191.5" ></text>
</g>
<g >
<title>entry_SYSCALL_64_after_hwframe (3 samples, 2.56%)</title><rect x="1159.7" y="133" width="30.3" height="15.0" fill="rgb(218,63,15)" rx="2" ry="2" />
<text  x="1162.74" y="143.5" >en..</text>
</g>
<g >
<title>kworker/22:1-ev (1 samples, 0.85%)</title><rect x="282.3" y="181" width="10.1" height="15.0" fill="rgb(223,86,20)" rx="2" ry="2" />
<text  x="285.31" y="191.5" ></text>
</g>
<g >
<title>migration/11 (3 samples, 2.56%)</title><rect x="524.4" y="181" width="30.2" height="15.0" fill="rgb(210,26,6)" rx="2" ry="2" />
<text  x="527.36" y="191.5" >mi..</text>
</g>
<g >
<title>[unknown] (2 samples, 1.71%)</title><rect x="10.0" y="101" width="20.2" height="15.0" fill="rgb(210,24,5)" rx="2" ry="2" />
<text  x="13.00" y="111.5" ></text>
</g>
<g >
<title>ksoftirqd/8 (1 samples, 0.85%)</title><rect x="50.3" y="181" width="10.1" height="15.0" fill="rgb(248,198,47)" rx="2" ry="2" />
<text  x="53.34" y="191.5" ></text>
</g>
<g >
<title>migration/10 (3 samples, 2.56%)</title><rect x="494.1" y="181" width="30.3" height="15.0" fill="rgb(217,56,13)" rx="2" ry="2" />
<text  x="497.10" y="191.5" >mi..</text>
</g>
<g >
<title>run_builtin (1 samples, 0.85%)</title><rect x="1179.9" y="85" width="10.1" height="15.0" fill="rgb(243,179,42)" rx="2" ry="2" />
<text  x="1182.91" y="95.5" ></text>
</g>
<g >
<title>ThreadPoolForeg (1 samples, 0.85%)</title><rect x="10.0" y="85" width="10.1" height="15.0" fill="rgb(215,48,11)" rx="2" ry="2" />
<text  x="13.00" y="95.5" ></text>
</g>
<g >
<title>kworker/8:2-eve (1 samples, 0.85%)</title><rect x="403.3" y="181" width="10.1" height="15.0" fill="rgb(249,203,48)" rx="2" ry="2" />
<text  x="406.33" y="191.5" ></text>
</g>
<g >
<title>hrtimer_nanosleep (1 samples, 0.85%)</title><rect x="30.2" y="213" width="10.1" height="15.0" fill="rgb(237,147,35)" rx="2" ry="2" />
<text  x="33.17" y="223.5" ></text>
</g>
<g >
<title>__libc_start_main (1 samples, 0.85%)</title><rect x="1179.9" y="53" width="10.1" height="15.0" fill="rgb(236,142,34)" rx="2" ry="2" />
<text  x="1182.91" y="63.5" ></text>
</g>
<g >
<title>migration/22 (3 samples, 2.56%)</title><rect x="887.4" y="181" width="30.3" height="15.0" fill="rgb(247,197,47)" rx="2" ry="2" />
<text  x="890.44" y="191.5" >mi..</text>
</g>
<g >
<title>migration/8 (3 samples, 2.56%)</title><rect x="1069.0" y="181" width="30.2" height="15.0" fill="rgb(232,124,29)" rx="2" ry="2" />
<text  x="1071.97" y="191.5" >mi..</text>
</g>
<g >
<title>migration/5 (3 samples, 2.56%)</title><rect x="978.2" y="181" width="30.3" height="15.0" fill="rgb(251,213,51)" rx="2" ry="2" />
<text  x="981.21" y="191.5" >mi..</text>
</g>
<g >
<title>schedule_hrtimeout_range (3 samples, 2.56%)</title><rect x="1159.7" y="213" width="30.3" height="15.0" fill="rgb(221,75,18)" rx="2" ry="2" />
<text  x="1162.74" y="223.5" >sc..</text>
</g>
<g >
<title>migration/4 (3 samples, 2.56%)</title><rect x="947.9" y="181" width="30.3" height="15.0" fill="rgb(207,13,3)" rx="2" ry="2" />
<text  x="950.95" y="191.5" >mi..</text>
</g>
<g >
<title>grpc_global_tim (1 samples, 0.85%)</title><rect x="20.1" y="85" width="10.1" height="15.0" fill="rgb(252,216,51)" rx="2" ry="2" />
<text  x="23.09" y="95.5" ></text>
</g>
<g >
<title>migration/7 (3 samples, 2.56%)</title><rect x="1038.7" y="181" width="30.3" height="15.0" fill="rgb(238,154,36)" rx="2" ry="2" />
<text  x="1041.72" y="191.5" >mi..</text>
</g>
<g >
<title>do_sys_poll (3 samples, 2.56%)</title><rect x="1159.7" y="197" width="30.3" height="15.0" fill="rgb(219,68,16)" rx="2" ry="2" />
<text  x="1162.74" y="207.5" >do..</text>
</g>
<g >
<title>ret_from_fork (109 samples, 93.16%)</title><rect x="50.3" y="197" width="1099.4" height="15.0" fill="rgb(227,105,25)" rx="2" ry="2" />
<text  x="53.34" y="207.5" >ret_from_fork</text>
</g>
<g >
<title>kworker/11:0-ev (2 samples, 1.71%)</title><rect x="90.7" y="181" width="20.2" height="15.0" fill="rgb(243,175,42)" rx="2" ry="2" />
<text  x="93.68" y="191.5" ></text>
</g>
<g >
<title>sdma0 (1 samples, 0.85%)</title><rect x="1129.5" y="181" width="10.1" height="15.0" fill="rgb(233,132,31)" rx="2" ry="2" />
<text  x="1132.49" y="191.5" ></text>
</g>
<g >
<title>migration/19 (3 samples, 2.56%)</title><rect x="766.4" y="181" width="30.3" height="15.0" fill="rgb(209,18,4)" rx="2" ry="2" />
<text  x="769.41" y="191.5" >mi..</text>
</g>
<g >
<title>[unknown] (2 samples, 1.71%)</title><rect x="1159.7" y="101" width="20.2" height="15.0" fill="rgb(210,24,5)" rx="2" ry="2" />
<text  x="1162.74" y="111.5" ></text>
</g>
<g >
<title>kworker/21:1-ev (2 samples, 1.71%)</title><rect x="262.1" y="181" width="20.2" height="15.0" fill="rgb(230,116,27)" rx="2" ry="2" />
<text  x="265.14" y="191.5" ></text>
</g>
<g >
<title>cmd_record (1 samples, 0.85%)</title><rect x="1179.9" y="101" width="10.1" height="15.0" fill="rgb(232,125,30)" rx="2" ry="2" />
<text  x="1182.91" y="111.5" ></text>
</g>
<g >
<title>perf (1 samples, 0.85%)</title><rect x="1179.9" y="37" width="10.1" height="15.0" fill="rgb(242,171,40)" rx="2" ry="2" />
<text  x="1182.91" y="47.5" ></text>
</g>
<g >
<title>do_syscall_64 (2 samples, 1.71%)</title><rect x="10.0" y="149" width="20.2" height="15.0" fill="rgb(209,20,4)" rx="2" ry="2" />
<text  x="13.00" y="159.5" ></text>
</g>
<g >
<title>kworker/6:1-eve (2 samples, 1.71%)</title><rect x="363.0" y="181" width="20.2" height="15.0" fill="rgb(218,62,14)" rx="2" ry="2" />
<text  x="365.99" y="191.5" ></text>
</g>
<g >
<title>migration/18 (3 samples, 2.56%)</title><rect x="736.2" y="181" width="30.2" height="15.0" fill="rgb(215,48,11)" rx="2" ry="2" />
<text  x="739.15" y="191.5" >mi..</text>
</g>
<g >
<title>schedule (117 samples, 100.00%)</title><rect x="10.0" y="229" width="1180.0" height="15.0" fill="rgb(254,229,54)" rx="2" ry="2" />
<text  x="13.00" y="239.5" >schedule</text>
</g>
<g >
<title>kworker/4:0-eve (1 samples, 0.85%)</title><rect x="352.9" y="181" width="10.1" height="15.0" fill="rgb(237,151,36)" rx="2" ry="2" />
<text  x="355.91" y="191.5" ></text>
</g>
<g >
<title>kworker/13:0-ev (2 samples, 1.71%)</title><rect x="131.0" y="181" width="20.2" height="15.0" fill="rgb(230,116,27)" rx="2" ry="2" />
<text  x="134.03" y="191.5" ></text>
</g>
<g >
<title>kworker/9:3-eve (2 samples, 1.71%)</title><rect x="413.4" y="181" width="20.2" height="15.0" fill="rgb(236,143,34)" rx="2" ry="2" />
<text  x="416.42" y="191.5" ></text>
</g>
<g >
<title>rcu_gp_fqs_loop (1 samples, 0.85%)</title><rect x="1149.7" y="213" width="10.0" height="15.0" fill="rgb(214,45,10)" rx="2" ry="2" />
<text  x="1152.66" y="223.5" ></text>
</g>
<g >
<title>all (117 samples, 100%)</title><rect x="10.0" y="245" width="1180.0" height="15.0" fill="rgb(213,39,9)" rx="2" ry="2" />
<text  x="13.00" y="255.5" ></text>
</g>
<g >
<title>migration/6 (3 samples, 2.56%)</title><rect x="1008.5" y="181" width="30.2" height="15.0" fill="rgb(245,184,44)" rx="2" ry="2" />
<text  x="1011.46" y="191.5" >mi..</text>
</g>
<g >
<title>entry_SYSCALL_64_after_hwframe (2 samples, 1.71%)</title><rect x="10.0" y="133" width="20.2" height="15.0" fill="rgb(218,63,15)" rx="2" ry="2" />
<text  x="13.00" y="143.5" ></text>
</g>
<g >
<title>kworker/2:1-eve (1 samples, 0.85%)</title><rect x="332.7" y="181" width="10.1" height="15.0" fill="rgb(244,181,43)" rx="2" ry="2" />
<text  x="335.74" y="191.5" ></text>
</g>
<g >
<title>kworker/16:2-ev (2 samples, 1.71%)</title><rect x="171.4" y="181" width="20.1" height="15.0" fill="rgb(247,197,47)" rx="2" ry="2" />
<text  x="174.37" y="191.5" ></text>
</g>
<g >
<title>sdma1 (1 samples, 0.85%)</title><rect x="1139.6" y="181" width="10.1" height="15.0" fill="rgb(227,103,24)" rx="2" ry="2" />
<text  x="1142.57" y="191.5" ></text>
</g>
<g >
<title>migration/15 (3 samples, 2.56%)</title><rect x="645.4" y="181" width="30.2" height="15.0" fill="rgb(234,137,32)" rx="2" ry="2" />
<text  x="648.38" y="191.5" >mi..</text>
</g>
<g >
<title>__x64_sys_poll (3 samples, 2.56%)</title><rect x="1159.7" y="181" width="30.3" height="15.0" fill="rgb(245,186,44)" rx="2" ry="2" />
<text  x="1162.74" y="191.5" >__..</text>
</g>
<g >
<title>x64_sys_call (1 samples, 0.85%)</title><rect x="30.2" y="165" width="10.1" height="15.0" fill="rgb(247,194,46)" rx="2" ry="2" />
<text  x="33.17" y="175.5" ></text>
</g>
<g >
<title>migration/13 (3 samples, 2.56%)</title><rect x="584.9" y="181" width="30.2" height="15.0" fill="rgb(247,197,47)" rx="2" ry="2" />
<text  x="587.87" y="191.5" >mi..</text>
</g>
<g >
<title>kworker/23:1-ev (4 samples, 3.42%)</title><rect x="292.4" y="181" width="40.3" height="15.0" fill="rgb(217,56,13)" rx="2" ry="2" />
<text  x="295.39" y="191.5" >kwo..</text>
</g>
<g >
<title>migration/12 (3 samples, 2.56%)</title><rect x="554.6" y="181" width="30.3" height="15.0" fill="rgb(254,226,54)" rx="2" ry="2" />
<text  x="557.62" y="191.5" >mi..</text>
</g>
<g >
<title>kworker/17:2-ev (1 samples, 0.85%)</title><rect x="191.5" y="181" width="10.1" height="15.0" fill="rgb(241,168,40)" rx="2" ry="2" />
<text  x="194.54" y="191.5" ></text>
</g>
<g >
<title>migration/1 (3 samples, 2.56%)</title><rect x="463.8" y="181" width="30.3" height="15.0" fill="rgb(227,102,24)" rx="2" ry="2" />
<text  x="466.85" y="191.5" >mi..</text>
</g>
<g >
<title>clock_nanosleep@@GLIBC_2.17 (1 samples, 0.85%)</title><rect x="30.2" y="117" width="10.1" height="15.0" fill="rgb(218,60,14)" rx="2" ry="2" />
<text  x="33.17" y="127.5" ></text>
</g>
<g >
<title>kthread (1 samples, 0.85%)</title><rect x="40.3" y="197" width="10.0" height="15.0" fill="rgb(239,159,38)" rx="2" ry="2" />
<text  x="43.26" y="207.5" ></text>
</g>
<g >
<title>kcompactd0 (1 samples, 0.85%)</title><rect x="40.3" y="165" width="10.0" height="15.0" fill="rgb(216,53,12)" rx="2" ry="2" />
<text  x="43.26" y="175.5" ></text>
</g>
<g >
<title>x64_sys_call (3 samples, 2.56%)</title><rect x="1159.7" y="165" width="30.3" height="15.0" fill="rgb(247,194,46)" rx="2" ry="2" />
<text  x="1162.74" y="175.5" >x6..</text>
</g>
<g >
<title>kworker/20:1-ev (1 samples, 0.85%)</title><rect x="252.1" y="181" width="10.0" height="15.0" fill="rgb(236,146,34)" rx="2" ry="2" />
<text  x="255.05" y="191.5" ></text>
</g>
<g >
<title>kworker/14:1-ev (1 samples, 0.85%)</title><rect x="151.2" y="181" width="10.1" height="15.0" fill="rgb(217,56,13)" rx="2" ry="2" />
<text  x="154.20" y="191.5" ></text>
</g>
<g >
<title>common_nsleep (1 samples, 0.85%)</title><rect x="30.2" y="197" width="10.1" height="15.0" fill="rgb(227,105,25)" rx="2" ry="2" />
<text  x="33.17" y="207.5" ></text>
</g>
<g >
<title>kworker/12:1-ev (2 samples, 1.71%)</title><rect x="110.9" y="181" width="20.1" height="15.0" fill="rgb(230,116,27)" rx="2" ry="2" />
<text  x="113.85" y="191.5" ></text>
</g>
<g >
<title>rcu_gp_kthread (1 samples, 0.85%)</title><rect x="1149.7" y="197" width="10.0" height="15.0" fill="rgb(241,168,40)" rx="2" ry="2" />
<text  x="1152.66" y="207.5" ></text>
</g>
<g >
<title>kworker/7:2-eve (2 samples, 1.71%)</title><rect x="383.2" y="181" width="20.1" height="15.0" fill="rgb(205,2,0)" rx="2" ry="2" />
<text  x="386.16" y="191.5" ></text>
</g>
<g >
<title>__x64_sys_futex (2 samples, 1.71%)</title><rect x="10.0" y="181" width="20.2" height="15.0" fill="rgb(239,159,38)" rx="2" ry="2" />
<text  x="13.00" y="191.5" ></text>
</g>
<g >
<title>kthread (1 samples, 0.85%)</title><rect x="1149.7" y="181" width="10.0" height="15.0" fill="rgb(239,159,38)" rx="2" ry="2" />
<text  x="1152.66" y="191.5" ></text>
</g>
<g >
<title>kworker/15:1-ev (1 samples, 0.85%)</title><rect x="161.3" y="181" width="10.1" height="15.0" fill="rgb(210,27,6)" rx="2" ry="2" />
<text  x="164.28" y="191.5" ></text>
</g>
<g >
<title>futex_wait (2 samples, 1.71%)</title><rect x="10.0" y="213" width="20.2" height="15.0" fill="rgb(235,138,33)" rx="2" ry="2" />
<text  x="13.00" y="223.5" ></text>
</g>
<g >
<title>kworker/10:3-ev (2 samples, 1.71%)</title><rect x="70.5" y="181" width="20.2" height="15.0" fill="rgb(230,116,27)" rx="2" ry="2" />
<text  x="73.51" y="191.5" ></text>
</g>
<g >
<title>kworker/0:5-eve (1 samples, 0.85%)</title><rect x="60.4" y="181" width="10.1" height="15.0" fill="rgb(231,121,29)" rx="2" ry="2" />
<text  x="63.43" y="191.5" ></text>
</g>
<g >
<title>migration/14 (3 samples, 2.56%)</title><rect x="615.1" y="181" width="30.3" height="15.0" fill="rgb(241,167,40)" rx="2" ry="2" />
<text  x="618.13" y="191.5" >mi..</text>
</g>
<g >
<title>kcompactd (1 samples, 0.85%)</title><rect x="40.3" y="213" width="10.0" height="15.0" fill="rgb(226,99,23)" rx="2" ry="2" />
<text  x="43.26" y="223.5" ></text>
</g>
<g >
<title>__poll (3 samples, 2.56%)</title><rect x="1159.7" y="117" width="30.3" height="15.0" fill="rgb(250,208,49)" rx="2" ry="2" />
<text  x="1162.74" y="127.5" >__..</text>
</g>
<g >
<title>pthread_cond_timedwait@@GLIBC_2.3.2 (2 samples, 1.71%)</title><rect x="10.0" y="117" width="20.2" height="15.0" fill="rgb(223,83,19)" rx="2" ry="2" />
<text  x="13.00" y="127.5" ></text>
</g>
<g >
<title>sleep (1 samples, 0.85%)</title><rect x="30.2" y="101" width="10.1" height="15.0" fill="rgb(244,182,43)" rx="2" ry="2" />
<text  x="33.17" y="111.5" ></text>
</g>
<g >
<title>do_syscall_64 (3 samples, 2.56%)</title><rect x="1159.7" y="149" width="30.3" height="15.0" fill="rgb(209,20,4)" rx="2" ry="2" />
<text  x="1162.74" y="159.5" >do..</text>
</g>
<g >
<title>kworker/19:0-ev (1 samples, 0.85%)</title><rect x="221.8" y="181" width="10.1" height="15.0" fill="rgb(241,168,40)" rx="2" ry="2" />
<text  x="224.79" y="191.5" ></text>
</g>
<g >
<title>migration/9 (3 samples, 2.56%)</title><rect x="1099.2" y="181" width="30.3" height="15.0" fill="rgb(225,94,22)" rx="2" ry="2" />
<text  x="1102.23" y="191.5" >mi..</text>
</g>
<g >
<title>migration/0 (3 samples, 2.56%)</title><rect x="433.6" y="181" width="30.2" height="15.0" fill="rgb(233,132,31)" rx="2" ry="2" />
<text  x="436.59" y="191.5" >mi..</text>
</g>
<g >
<title>x64_sys_call (2 samples, 1.71%)</title><rect x="10.0" y="165" width="20.2" height="15.0" fill="rgb(247,194,46)" rx="2" ry="2" />
<text  x="13.00" y="175.5" ></text>
</g>
<g >
<title>kthread (109 samples, 93.16%)</title><rect x="50.3" y="213" width="1099.4" height="15.0" fill="rgb(239,159,38)" rx="2" ry="2" />
<text  x="53.34" y="223.5" >kthread</text>
</g>
<g >
<title>do_syscall_64 (1 samples, 0.85%)</title><rect x="30.2" y="149" width="10.1" height="15.0" fill="rgb(209,20,4)" rx="2" ry="2" />
<text  x="33.17" y="159.5" ></text>
</g>
<g >
<title>rcu_sched (1 samples, 0.85%)</title><rect x="1149.7" y="149" width="10.0" height="15.0" fill="rgb(215,47,11)" rx="2" ry="2" />
<text  x="1152.66" y="159.5" ></text>
</g>
<g >
<title>migration/3 (3 samples, 2.56%)</title><rect x="917.7" y="181" width="30.2" height="15.0" fill="rgb(214,43,10)" rx="2" ry="2" />
<text  x="920.69" y="191.5" >mi..</text>
</g>
<g >
<title>__x64_sys_clock_nanosleep (1 samples, 0.85%)</title><rect x="30.2" y="181" width="10.1" height="15.0" fill="rgb(248,202,48)" rx="2" ry="2" />
<text  x="33.17" y="191.5" ></text>
</g>
<g >
<title>migration/20 (3 samples, 2.56%)</title><rect x="826.9" y="181" width="30.3" height="15.0" fill="rgb(210,26,6)" rx="2" ry="2" />
<text  x="829.92" y="191.5" >mi..</text>
</g>
<g >
<title>migration/21 (3 samples, 2.56%)</title><rect x="857.2" y="181" width="30.2" height="15.0" fill="rgb(254,226,54)" rx="2" ry="2" />
<text  x="860.18" y="191.5" >mi..</text>
</g>
<g >
<title>migration/16 (3 samples, 2.56%)</title><rect x="675.6" y="181" width="30.3" height="15.0" fill="rgb(228,107,25)" rx="2" ry="2" />
<text  x="678.64" y="191.5" >mi..</text>
</g>
<g >
<title>kworker/1:3-eve (2 samples, 1.71%)</title><rect x="231.9" y="181" width="20.2" height="15.0" fill="rgb(237,151,36)" rx="2" ry="2" />
<text  x="234.88" y="191.5" ></text>
</g>
<g >
<title>entry_SYSCALL_64_after_hwframe (1 samples, 0.85%)</title><rect x="30.2" y="133" width="10.1" height="15.0" fill="rgb(218,63,15)" rx="2" ry="2" />
<text  x="33.17" y="143.5" ></text>
</g>
<g >
<title>sublime_text (2 samples, 1.71%)</title><rect x="1159.7" y="85" width="20.2" height="15.0" fill="rgb(209,19,4)" rx="2" ry="2" />
<text  x="1162.74" y="95.5" ></text>
</g>
<g >
<title>main (1 samples, 0.85%)</title><rect x="1179.9" y="69" width="10.1" height="15.0" fill="rgb(243,179,42)" rx="2" ry="2" />
<text  x="1182.91" y="79.5" ></text>
</g>
<g >
<title>migration/17 (3 samples, 2.56%)</title><rect x="705.9" y="181" width="30.3" height="15.0" fill="rgb(222,78,18)" rx="2" ry="2" />
<text  x="708.90" y="191.5" >mi..</text>
</g>
<g >
<title>migration/2 (3 samples, 2.56%)</title><rect x="796.7" y="181" width="30.2" height="15.0" fill="rgb(220,72,17)" rx="2" ry="2" />
<text  x="799.67" y="191.5" >mi..</text>
</g>
<g >
<title>ret_from_fork (1 samples, 0.85%)</title><rect x="1149.7" y="165" width="10.0" height="15.0" fill="rgb(227,105,25)" rx="2" ry="2" />
<text  x="1152.66" y="175.5" ></text>
</g>
</g>
</svg>
